<?xml version="1.0" encoding="utf-8"?>
<!-- Generator: Adobe Illustrator 16.0.0, SVG Export Plug-In . SVG Version: 6.00 Build 0)  -->
<!DOCTYPE svg PUBLIC "-//W3C//DTD SVG 1.1//EN" "http://www.w3.org/Graphics/SVG/1.1/DTD/svg11.dtd">
<svg version="1.1" id="Layer_1" xmlns="http://www.w3.org/2000/svg" xmlns:xlink="http://www.w3.org/1999/xlink" x="0px" y="0px"
	 width="1592.667px" height="296.584px" viewBox="0 0 1592.667 296.584" enable-background="new 0 0 1592.667 296.584"
	 xml:space="preserve">
<line fill="#0094E9" stroke="#000000" stroke-miterlimit="10" x1="657.126" y1="142.511" x2="657.126" y2="142.511"/>
<g>
	<path fill="#1A1A1A" stroke="#1A1A1A" stroke-width="5" stroke-miterlimit="10" d="M276.202,42.636l48.73,140.936h0.788
		l49.124-140.936h50.175v191.242h-38.354v-57.005l3.678-84.457l-0.788-0.131L338.33,233.878h-25.744L261.623,92.811l-0.788,0.131
		l3.678,83.931v57.005h-38.354V42.636H276.202z"/>
	<path fill="#1A1A1A" stroke="#1A1A1A" stroke-width="5" stroke-miterlimit="10" d="M451.815,161.505
		c0-21.189,5.91-38.55,17.731-52.079c11.821-13.528,28.194-20.293,49.124-20.293c21.016,0,37.478,6.744,49.387,20.228
		c11.907,13.486,17.863,30.867,17.863,52.145v2.759c0,21.366-5.934,38.771-17.798,52.211
		c-11.866,13.442-28.262,20.161-49.189,20.161c-21.016,0-37.457-6.719-49.321-20.161c-11.866-13.44-17.797-30.845-17.797-52.211
		V161.505z M490.037,164.196c0,12.941,2.276,23.324,6.83,31.149c4.552,7.825,11.907,11.737,22.066,11.737
		c9.895,0,17.141-3.935,21.738-11.803c4.597-7.868,6.896-18.23,6.896-31.084v-2.754c0-12.589-2.321-22.863-6.961-30.82
		c-4.643-7.957-11.953-11.936-21.936-11.936c-9.896,0-17.141,4.002-21.738,12.002c-4.597,8-6.896,18.251-6.896,30.754V164.196z"/>
	<path fill="#1A1A1A" stroke="#1A1A1A" stroke-width="5" stroke-miterlimit="10" d="M644.633,91.76l1.707,20.359
		c4.729-7.267,10.551-12.915,17.469-16.944c6.917-4.027,14.666-6.042,23.249-6.042c14.36,0,25.567,4.511,33.625,13.529
		c8.056,9.02,12.084,23.162,12.084,42.425v88.791h-38.485v-88.863c0-9.566-1.927-16.345-5.779-20.338
		c-3.854-3.994-9.676-5.991-17.469-5.991c-5.079,0-9.634,1.032-13.66,3.095c-4.028,2.063-7.4,4.981-10.113,8.753v103.344h-38.354
		V91.76H644.633z"/>
	<path fill="#1A1A1A" stroke="#1A1A1A" stroke-width="5" stroke-miterlimit="10" d="M755.491,161.505
		c0-21.189,5.91-38.55,17.731-52.079c11.821-13.528,28.194-20.293,49.124-20.293c21.016,0,37.478,6.744,49.387,20.228
		c11.907,13.486,17.863,30.867,17.863,52.145v2.759c0,21.366-5.934,38.771-17.798,52.211
		c-11.866,13.442-28.262,20.161-49.189,20.161c-21.016,0-37.457-6.719-49.321-20.161c-11.866-13.44-17.797-30.845-17.797-52.211
		V161.505z M793.712,164.196c0,12.941,2.276,23.324,6.83,31.149c4.552,7.825,11.907,11.737,22.066,11.737
		c9.895,0,17.141-3.935,21.738-11.803c4.597-7.868,6.896-18.23,6.896-31.084v-2.754c0-12.589-2.321-22.863-6.961-30.82
		c-4.643-7.957-11.953-11.936-21.936-11.936c-9.896,0-17.141,4.002-21.738,12.002c-4.597,8-6.896,18.251-6.896,30.754V164.196z"/>
	<path fill="#1A1A1A" stroke="#1A1A1A" stroke-width="5" stroke-miterlimit="10" d="M990.077,194.736
		c0-4.203-2.035-7.836-6.107-10.901c-4.071-3.064-11.624-5.779-22.657-8.145c-16.813-3.414-29.487-8.472-38.025-15.17
		c-8.537-6.699-12.806-15.828-12.806-27.386c0-12.258,5.143-22.658,15.433-31.195c10.288-8.538,24.058-12.807,41.31-12.807
		c18.125,0,32.551,4.248,43.278,12.741c10.726,8.495,15.871,19.222,15.434,32.18l-0.263,0.788h-37.04
		c0-5.691-1.818-10.332-5.451-13.923c-3.635-3.589-8.954-5.385-15.958-5.385c-6.219,0-11.1,1.51-14.646,4.532
		c-3.547,3.021-5.319,6.809-5.319,11.361c0,4.379,1.859,7.969,5.582,10.771c3.721,2.803,11.273,5.299,22.657,7.487
		c17.513,3.503,30.516,8.649,39.011,15.433c8.492,6.787,12.74,16.136,12.74,28.043c0,12.786-5.474,23.228-16.418,31.326
		c-10.947,8.101-25.396,12.149-43.346,12.149c-18.914,0-33.866-4.794-44.854-14.382c-10.99-9.589-16.222-20.511-15.696-32.771
		l0.263-0.788h35.069c0.264,7.618,2.759,13.135,7.487,16.55s10.901,5.122,18.521,5.122c7.092,0,12.498-1.399,16.221-4.203
		C988.215,203.362,990.077,199.553,990.077,194.736z"/>
	<path fill="#1A1A1A" stroke="#1A1A1A" stroke-width="5" stroke-miterlimit="10" d="M1180.137,166.759
		c0,21.016-4.859,37.917-14.58,50.701c-9.719,12.785-23.293,19.176-40.717,19.176c-7.444,0-14.055-1.379-19.834-4.137
		c-5.779-2.759-10.728-6.808-14.842-12.15v68.17h-38.223V91.76h34.545l2.232,16.813c4.203-6.216,9.26-11.011,15.171-14.383
		c5.91-3.37,12.806-5.057,20.687-5.057c17.602,0,31.262,6.875,40.98,20.622c9.721,13.749,14.58,31.831,14.58,54.247V166.759z
		 M1141.784,163.806c0-13.417-2.232-24.291-6.699-32.623c-4.465-8.331-11.295-12.497-20.49-12.497
		c-5.779,0-10.704,1.184-14.776,3.553c-4.071,2.368-7.29,5.744-9.653,10.128v62.351c2.363,4.035,5.582,7.104,9.653,9.209
		c4.072,2.105,9.084,3.156,15.04,3.156c9.28,0,16.09-3.639,20.424-10.918c4.335-7.277,6.502-17.143,6.502-29.597V163.806z"/>
	<path fill="#1A1A1A" stroke="#1A1A1A" stroke-width="5" stroke-miterlimit="10" d="M1287.186,233.878
		c-1.402-3.238-2.606-6.653-3.612-10.245c-1.008-3.59-1.73-7.268-2.167-11.033c-3.941,6.918-9.129,12.654-15.565,17.206
		c-6.436,4.553-14.12,6.83-23.052,6.83c-14.887,0-26.357-3.829-34.412-11.492c-8.058-7.661-12.084-18.104-12.084-31.326
		c0-13.924,5.362-24.715,16.09-32.378c10.726-7.661,26.378-11.493,46.957-11.493h21.409v-11.296c0-6.83-1.796-12.127-5.386-15.893
		c-3.591-3.764-8.888-5.648-15.893-5.648c-6.219,0-11.013,1.51-14.383,4.532c-3.372,3.021-5.057,7.203-5.057,12.543l-37.04-0.131
		l-0.132-0.788c-0.613-11.996,4.598-22.35,15.631-31.063c11.033-8.712,25.524-13.069,43.477-13.069
		c16.986,0,30.778,4.314,41.374,12.938c10.594,8.626,15.894,20.907,15.894,36.843v58.712c0,6.655,0.502,12.917,1.51,18.783
		c1.006,5.867,2.604,11.689,4.795,17.469H1287.186z M1252.116,208.265c6.742,0,12.74-1.662,17.994-4.99
		c5.254-3.327,8.801-7.18,10.64-11.559v-20.097h-21.409c-8.145,0-14.317,2.036-18.521,6.107c-4.203,4.072-6.305,8.997-6.305,14.776
		c0,4.729,1.576,8.538,4.729,11.428S1246.685,208.265,1252.116,208.265z"/>
	<path fill="#1A1A1A" stroke="#1A1A1A" stroke-width="5" stroke-miterlimit="10" d="M1422.999,124.728l-14.054-0.394
		c-5.693,0-10.376,1.182-14.054,3.546s-6.481,5.693-8.406,9.982v96.015h-38.223V91.76h35.596l1.707,21.016
		c3.327-7.442,7.639-13.244,12.938-17.403c5.297-4.158,11.405-6.239,18.323-6.239c1.925,0,3.698,0.154,5.319,0.46
		c1.619,0.308,3.262,0.679,4.926,1.116L1422.999,124.728z"/>
	<path fill="#1A1A1A" stroke="#1A1A1A" stroke-width="5" stroke-miterlimit="10" d="M1491.299,174.378h-10.508v59.5h-38.354V28.976
		h38.354v116.243h9.457l32.969-53.458h44.395l-45.445,64.36l52.407,77.758h-44.001L1491.299,174.378z"/>
</g>
<g>
	
		<radialGradient id="SVGID_1_" cx="105.5947" cy="103.6997" r="88.5167" fx="107.9171" fy="103.9134" gradientUnits="userSpaceOnUse">
		<stop  offset="0.5" style="stop-color:#FFFFFF"/>
		<stop  offset="0.5873" style="stop-color:#F6FCFF"/>
		<stop  offset="0.7325" style="stop-color:#DCF5FF"/>
		<stop  offset="0.9165" style="stop-color:#B3E9FF"/>
		<stop  offset="1" style="stop-color:#9EE3FF"/>
	</radialGradient>
	<path fill="url(#SVGID_1_)" d="M103.605,21.5c-45.34,0.456-81.948,35.614-81.948,78.927c0,0-0.881,20.574,14.542,45.347
		c15.422,24.771,28.354,38.756,29.235,53.031c0,0,0.25,2.291,0,12.813c0,0,29.873-0.326,74.211,0
		c0.408-8.111,0.541-10.842,0.541-10.842c0.881-14.273,15.383-30.23,30.805-55.002c15.424-24.773,14.543-45.347,14.543-45.347
		c0-43.313-36.609-78.471-81.947-78.927"/>
	<g>
		<path fill="#1A1A1A" d="M103.605,19c-44.301,0.803-83.226,34.721-84.437,80.062c-0.508,19.047,7.955,37.233,17.988,52.894
			c10.206,15.932,25.871,32.091,25.888,52.028c0.003,2.545-0.055,5.09-0.11,7.634c-0.029,1.352,1.159,2.515,2.5,2.5
			c24.734-0.267,49.477-0.178,74.211,0c1.414,0.01,2.432-1.147,2.5-2.5c0.439-8.747,0.73-15.925,4.769-23.945
			c5.782-11.488,13.96-21.824,21.032-32.522c10.51-15.898,20.65-34.965,20.089-54.691c-0.604-21.264-8.4-40.665-23.318-55.967
			c-15.282-15.677-36.584-24.322-58.278-25.417c-0.95-0.04-1.9-0.065-2.852-0.075c-3.227-0.059-3.221,4.941,0,5
			c42.34,0.767,79.891,33.918,79.453,77.533c-0.227,22.507-13.231,42.116-25.403,60.017c-6.186,9.098-13.162,18.206-17.299,28.485
			c-2.843,7.064-2.815,14.091-3.192,21.583c0.833-0.833,1.667-1.667,2.5-2.5c-24.734-0.178-49.477-0.267-74.211,0
			c0.833,0.833,1.667,1.667,2.5,2.5c0.15-6.854,0.563-13.667-1.387-20.313c-2.787-9.506-9.064-17.97-14.533-26.067
			c-12.919-19.126-26.858-38.96-27.842-62.869C22.366,58.436,61.605,24.762,103.605,24C106.826,23.942,106.832,18.942,103.605,19
			L103.605,19z"/>
	</g>
</g>
<g>
	<polygon fill="#FFDB00" points="127.448,52.049 111.42,96.595 141.02,96.587 79.174,160.444 93.409,114.979 66.574,115.025 	"/>
	<g>
		<path fill="#1A1A1A" d="M125.037,51.385c-5.342,14.849-10.685,29.697-16.027,44.545c-0.558,1.55,0.88,3.165,2.411,3.165
			c9.867-0.002,19.733-0.005,29.6-0.008c-0.589-1.422-1.179-2.845-1.768-4.268c-20.615,21.286-41.23,42.571-61.846,63.857
			c1.393,0.811,2.786,1.621,4.178,2.433c4.745-15.156,9.49-30.311,14.234-45.466c0.488-1.559-0.828-3.167-2.411-3.165
			c-8.945,0.016-17.89,0.031-26.835,0.047c0.589,1.422,1.179,2.845,1.768,4.268c20.292-20.992,40.583-41.984,60.874-62.976
			c2.241-2.318-1.291-5.857-3.535-3.535c-20.292,20.992-40.583,41.984-60.874,62.976c-1.504,1.555-0.442,4.271,1.768,4.268
			c8.945-0.016,17.89-0.031,26.835-0.047c-0.804-1.055-1.607-2.11-2.411-3.165c-4.745,15.155-9.49,30.311-14.234,45.465
			c-0.752,2.404,2.462,4.205,4.178,2.433c20.615-21.286,41.23-42.571,61.846-63.857c1.507-1.556,0.439-4.268-1.768-4.268
			c-9.867,0.002-19.733,0.005-29.6,0.008c0.804,1.055,1.607,2.11,2.411,3.165c5.342-14.849,10.685-29.697,16.027-44.545
			C130.953,49.672,126.12,48.375,125.037,51.385z"/>
	</g>
</g>
<g>
	<polygon fill="#1A1A1A" points="139.667,223.167 65.845,230.271 65.434,212.001 139.667,212.001 	"/>
	<g>
		<path fill="#1A1A1A" d="M139.645,220.667c-24.604,2.304-49.207,4.608-73.811,6.912c0.833,0.833,1.667,1.667,2.5,2.5
			c-0.133-6.153-0.267-12.308-0.4-18.461c-0.833,0.833-1.667,1.667-2.5,2.5c24.737,0,49.474,0,74.211,0
			c-0.833-0.833-1.667-1.667-2.5-2.5c0,3.85,0,7.699,0,11.549c0,3.225,5,3.225,5,0c0-3.85,0-7.699,0-11.549
			c0-1.363-1.137-2.5-2.5-2.5c-24.737,0-49.474,0-74.211,0c-1.34,0-2.53,1.137-2.5,2.5c0.133,6.153,0.267,12.308,0.4,18.461
			c0.027,1.265,1.12,2.629,2.5,2.5c24.604-2.304,49.207-4.608,73.811-6.912C142.827,225.369,142.856,220.366,139.645,220.667z"/>
	</g>
</g>
<g>
	<polygon fill="#1A1A1A" points="65.667,263.528 139.361,256.577 139.645,275.001 65.667,275.001 	"/>
	<g>
		<path fill="#1A1A1A" d="M65.434,266.028c24.604-2.304,49.207-4.608,73.811-6.912c-0.833-0.833-1.667-1.667-2.5-2.5
			c0.133,6.154,0.267,12.309,0.4,18.463c0.833-0.833,1.667-1.667,2.5-2.5c-24.737,0-49.474,0-74.211,0
			c0.833,0.833,1.667,1.667,2.5,2.5c0-3.851,0-7.7,0-11.551c0-3.225-5-3.225-5,0c0,3.851,0,7.7,0,11.551c0,1.363,1.137,2.5,2.5,2.5
			c24.737,0,49.474,0,74.211,0c1.34,0,2.53-1.137,2.5-2.5c-0.133-6.154-0.267-12.309-0.4-18.463c-0.027-1.265-1.12-2.629-2.5-2.5
			c-24.604,2.304-49.207,4.608-73.811,6.912C62.252,261.326,62.223,266.329,65.434,266.028z"/>
	</g>
</g>
<g>
	<polygon fill="#1A1A1A" points="139.667,244.737 65.667,252.001 65.667,242.001 139.667,234.413 	"/>
	<g>
		<path fill="#1A1A1A" d="M139.645,242.237c-24.737,2.421-49.474,4.843-74.211,7.264c0.833,0.833,1.667,1.667,2.5,2.5
			c0-3.333,0-6.667,0-10c-0.833,0.833-1.667,1.667-2.5,2.5c24.737-2.529,49.474-5.059,74.211-7.588
			c-0.833-0.833-1.667-1.667-2.5-2.5c0,3.441,0,6.883,0,10.324c0,3.225,5,3.225,5,0c0-3.441,0-6.883,0-10.324
			c0-1.258-1.142-2.639-2.5-2.5c-24.737,2.529-49.474,5.059-74.211,7.588c-1.355,0.139-2.5,1.032-2.5,2.5c0,3.333,0,6.667,0,10
			c0,1.262,1.141,2.633,2.5,2.5c24.737-2.421,49.474-4.843,74.211-7.264C142.824,246.926,142.854,241.923,139.645,242.237z"/>
	</g>
</g>
<g>
	<rect x="89.667" y="277.001" fill="#1A1A1A" width="26" height="6"/>
	<g>
		<path fill="#1A1A1A" d="M115.358,280.833c-8.645,0-17.291,0-25.936,0c0.833,0.833,1.667,1.667,2.5,2.5c0-2.11,0-4.222,0-6.332
			c-0.833,0.833-1.667,1.667-2.5,2.5c8.645,0,17.291,0,25.936,0c-0.833-0.833-1.667-1.667-2.5-2.5c0,2.11,0,4.222,0,6.332
			c0,3.225,5,3.225,5,0c0-2.11,0-4.222,0-6.332c0-1.363-1.137-2.5-2.5-2.5c-8.645,0-17.291,0-25.936,0c-1.363,0-2.5,1.137-2.5,2.5
			c0,2.11,0,4.222,0,6.332c0,1.363,1.137,2.5,2.5,2.5c8.645,0,17.291,0,25.936,0C118.582,285.833,118.582,280.833,115.358,280.833z"
			/>
	</g>
</g>
</svg>
