<?xml version="1.0" encoding="utf-8"?>
<!-- Generator: Adobe Illustrator 16.0.0, SVG Export Plug-In . SVG Version: 6.00 Build 0)  -->
<!DOCTYPE svg PUBLIC "-//W3C//DTD SVG 1.1//EN" "http://www.w3.org/Graphics/SVG/1.1/DTD/svg11.dtd">
<svg version="1.1" id="Layer_1" xmlns="http://www.w3.org/2000/svg" xmlns:xlink="http://www.w3.org/1999/xlink" x="0px" y="0px"
	 width="1592.667px" height="296.584px" viewBox="0 0 1592.667 296.584" enable-background="new 0 0 1592.667 296.584"
	 xml:space="preserve">
<line fill="#0094E9" stroke="#000000" stroke-miterlimit="10" x1="657.126" y1="142.511" x2="657.126" y2="142.511"/>
<polygon fill="#333333" stroke="#333333" stroke-width="5" stroke-miterlimit="10" points="151.268,18.913 116.033,116.856 
	179.26,118.104 45.126,257.242 76.426,157.276 17.426,158.8 "/>
<g>
	<path fill="#333333" stroke="#333333" stroke-width="5" stroke-miterlimit="10" d="M276.202,42.636l48.73,140.936h0.788
		l49.124-140.936h50.175v191.242h-38.354v-57.005l3.678-84.457l-0.788-0.131L338.33,233.878h-25.744L261.623,92.811l-0.788,0.131
		l3.678,83.931v57.005h-38.354V42.636H276.202z"/>
	<path fill="#333333" stroke="#333333" stroke-width="5" stroke-miterlimit="10" d="M451.815,161.505
		c0-21.189,5.91-38.55,17.731-52.079c11.821-13.528,28.194-20.293,49.124-20.293c21.016,0,37.478,6.744,49.387,20.228
		c11.907,13.486,17.863,30.867,17.863,52.145v2.759c0,21.366-5.934,38.771-17.798,52.211
		c-11.866,13.442-28.262,20.161-49.189,20.161c-21.016,0-37.457-6.719-49.321-20.161c-11.866-13.44-17.797-30.845-17.797-52.211
		V161.505z M490.037,164.196c0,12.941,2.276,23.324,6.83,31.149c4.552,7.825,11.907,11.737,22.066,11.737
		c9.895,0,17.141-3.935,21.738-11.803c4.597-7.868,6.896-18.23,6.896-31.084v-2.754c0-12.589-2.321-22.863-6.961-30.82
		c-4.643-7.957-11.953-11.936-21.936-11.936c-9.896,0-17.141,4.002-21.738,12.002c-4.597,8-6.896,18.251-6.896,30.754V164.196z"/>
	<path fill="#333333" stroke="#333333" stroke-width="5" stroke-miterlimit="10" d="M644.634,91.76l1.707,20.359
		c4.729-7.267,10.551-12.915,17.469-16.944c6.917-4.027,14.666-6.042,23.25-6.042c14.359,0,25.566,4.511,33.625,13.529
		c8.055,9.02,12.084,23.162,12.084,42.425v88.791h-38.486v-88.863c0-9.566-1.926-16.345-5.779-20.338s-9.675-5.991-17.468-5.991
		c-5.079,0-9.634,1.032-13.66,3.095c-4.028,2.063-7.4,4.981-10.113,8.753v103.344h-38.354V91.76H644.634z"/>
	<path fill="#333333" stroke="#333333" stroke-width="5" stroke-miterlimit="10" d="M755.491,161.505
		c0-21.189,5.91-38.55,17.732-52.079c11.82-13.528,28.193-20.293,49.123-20.293c21.016,0,37.479,6.744,49.387,20.228
		c11.908,13.486,17.863,30.867,17.863,52.145v2.759c0,21.366-5.934,38.771-17.797,52.211
		c-11.867,13.442-28.262,20.161-49.189,20.161c-21.016,0-37.457-6.719-49.322-20.161c-11.865-13.44-17.797-30.845-17.797-52.211
		V161.505z M793.713,164.196c0,12.941,2.275,23.324,6.83,31.149c4.551,7.825,11.906,11.737,22.066,11.737
		c9.895,0,17.141-3.935,21.738-11.803c4.596-7.868,6.895-18.23,6.895-31.084v-2.754c0-12.589-2.32-22.863-6.961-30.82
		c-4.643-7.957-11.953-11.936-21.936-11.936c-9.896,0-17.141,4.002-21.738,12.002c-4.596,8-6.895,18.251-6.895,30.754V164.196z"/>
	<path fill="#333333" stroke="#333333" stroke-width="5" stroke-miterlimit="10" d="M990.077,194.736
		c0-4.203-2.035-7.836-6.107-10.901c-4.07-3.064-11.623-5.779-22.656-8.145c-16.813-3.414-29.488-8.472-38.025-15.17
		c-8.537-6.699-12.807-15.828-12.807-27.386c0-12.258,5.143-22.658,15.434-31.195c10.287-8.538,24.057-12.807,41.309-12.807
		c18.125,0,32.551,4.248,43.279,12.741c10.725,8.495,15.871,19.222,15.434,32.18l-0.264,0.788h-37.039
		c0-5.691-1.818-10.332-5.451-13.923c-3.635-3.589-8.955-5.385-15.959-5.385c-6.219,0-11.1,1.51-14.645,4.532
		c-3.547,3.021-5.32,6.809-5.32,11.361c0,4.379,1.859,7.969,5.582,10.771c3.721,2.803,11.273,5.299,22.658,7.487
		c17.512,3.503,30.516,8.649,39.01,15.433c8.492,6.787,12.74,16.136,12.74,28.043c0,12.786-5.473,23.228-16.418,31.326
		c-10.947,8.101-25.395,12.149-43.346,12.149c-18.914,0-33.865-4.794-44.854-14.382c-10.99-9.589-16.223-20.511-15.697-32.771
		l0.264-0.788h35.068c0.264,7.618,2.76,13.135,7.488,16.55s10.9,5.122,18.52,5.122c7.092,0,12.498-1.399,16.221-4.203
		C988.215,203.362,990.077,199.553,990.077,194.736z"/>
	<path fill="#333333" stroke="#333333" stroke-width="5" stroke-miterlimit="10" d="M1180.137,166.759
		c0,21.016-4.859,37.917-14.58,50.701c-9.719,12.785-23.293,19.176-40.717,19.176c-7.443,0-14.055-1.379-19.834-4.137
		c-5.779-2.759-10.727-6.808-14.842-12.15v68.17h-38.223V91.76h34.545l2.232,16.813c4.203-6.216,9.26-11.011,15.172-14.383
		c5.91-3.37,12.805-5.057,20.686-5.057c17.602,0,31.262,6.875,40.98,20.622c9.721,13.749,14.58,31.831,14.58,54.247V166.759z
		 M1141.784,163.806c0-13.417-2.232-24.291-6.699-32.623c-4.465-8.331-11.295-12.497-20.49-12.497
		c-5.779,0-10.703,1.184-14.775,3.553c-4.072,2.368-7.291,5.744-9.654,10.128v62.351c2.363,4.035,5.582,7.104,9.654,9.209
		s9.084,3.156,15.039,3.156c9.281,0,16.09-3.639,20.424-10.918c4.336-7.277,6.502-17.143,6.502-29.597V163.806z"/>
	<path fill="#333333" stroke="#333333" stroke-width="5" stroke-miterlimit="10" d="M1287.186,233.878
		c-1.402-3.238-2.605-6.653-3.611-10.245c-1.008-3.59-1.73-7.268-2.168-11.033c-3.941,6.918-9.129,12.654-15.564,17.206
		c-6.436,4.553-14.121,6.83-23.053,6.83c-14.887,0-26.357-3.829-34.412-11.492c-8.057-7.661-12.084-18.104-12.084-31.326
		c0-13.924,5.363-24.715,16.09-32.378c10.727-7.661,26.379-11.493,46.957-11.493h21.41v-11.296c0-6.83-1.797-12.127-5.387-15.893
		c-3.59-3.764-8.887-5.648-15.893-5.648c-6.219,0-11.012,1.51-14.383,4.532c-3.371,3.021-5.057,7.203-5.057,12.543l-37.039-0.131
		l-0.133-0.788c-0.613-11.996,4.598-22.35,15.631-31.063c11.033-8.712,25.525-13.069,43.477-13.069
		c16.986,0,30.779,4.314,41.375,12.938c10.594,8.626,15.893,20.907,15.893,36.843v58.712c0,6.655,0.502,12.917,1.51,18.783
		c1.006,5.867,2.605,11.689,4.795,17.469H1287.186z M1252.116,208.265c6.742,0,12.74-1.662,17.994-4.99
		c5.254-3.327,8.801-7.18,10.641-11.559v-20.097h-21.41c-8.145,0-14.316,2.036-18.52,6.107c-4.203,4.072-6.305,8.997-6.305,14.776
		c0,4.729,1.576,8.538,4.729,11.428S1246.686,208.265,1252.116,208.265z"/>
	<path fill="#333333" stroke="#333333" stroke-width="5" stroke-miterlimit="10" d="M1422.999,124.728l-14.053-0.394
		c-5.693,0-10.377,1.182-14.055,3.546s-6.48,5.693-8.406,9.982v96.015h-38.223V91.76h35.596l1.707,21.016
		c3.328-7.442,7.639-13.244,12.938-17.403c5.297-4.158,11.406-6.239,18.324-6.239c1.924,0,3.697,0.154,5.318,0.46
		c1.619,0.308,3.262,0.679,4.926,1.116L1422.999,124.728z"/>
	<path fill="#333333" stroke="#333333" stroke-width="5" stroke-miterlimit="10" d="M1491.299,174.378h-10.508v59.5h-38.354V28.976
		h38.354v116.243h9.457l32.969-53.458h44.395l-45.445,64.36l52.408,77.758h-44.002L1491.299,174.378z"/>
</g>
</svg>
