<?xml version="1.0" encoding="utf-8"?>
<!-- Generator: Adobe Illustrator 16.0.0, SVG Export Plug-In . SVG Version: 6.00 Build 0)  -->
<!DOCTYPE svg PUBLIC "-//W3C//DTD SVG 1.1//EN" "http://www.w3.org/Graphics/SVG/1.1/DTD/svg11.dtd">
<svg version="1.1" xmlns="http://www.w3.org/2000/svg" xmlns:xlink="http://www.w3.org/1999/xlink" x="0px" y="0px"
	 width="1632.24px" height="338.415px" viewBox="0 0 1632.24 338.415" enable-background="new 0 0 1632.24 338.415"
	 xml:space="preserve">
<g id="Layer_1">
	<line fill="#0094E9" stroke="#000000" stroke-miterlimit="10" x1="686.262" y1="167.42" x2="686.262" y2="167.42"/>
	<rect x="257.074" y="70.733" fill="none" width="1384.371" height="267.683"/>
	
		<text transform="matrix(1 0 0 1 257.0737 275.709)" fill="#1A1A1A" stroke="#1A1A1A" stroke-width="5" stroke-miterlimit="10" font-family="'Roboto-Bold'" font-size="269">Monospark</text>
	<g>
		
			<radialGradient id="SVGID_1_" cx="134.7305" cy="128.6089" r="88.5167" fx="137.0528" fy="128.8226" gradientUnits="userSpaceOnUse">
			<stop  offset="0.5" style="stop-color:#FFFFFF"/>
			<stop  offset="0.5873" style="stop-color:#F6FCFF"/>
			<stop  offset="0.7325" style="stop-color:#DCF5FF"/>
			<stop  offset="0.9165" style="stop-color:#B3E9FF"/>
			<stop  offset="1" style="stop-color:#9EE3FF"/>
		</radialGradient>
		<path fill="url(#SVGID_1_)" d="M132.741,46.41c-45.34,0.456-81.948,35.614-81.948,78.927c0,0-0.881,20.574,14.542,45.347
			c15.422,24.771,28.354,38.756,29.235,53.031c0,0,0.25,2.291,0,12.813c0,0,29.873-0.326,74.211,0
			c0.408-8.111,0.541-10.842,0.541-10.842c0.881-14.273,15.383-30.23,30.805-55.002c15.424-24.773,14.543-45.347,14.543-45.347
			c0-43.313-36.609-78.471-81.947-78.927"/>
		<g>
			<path fill="#1A1A1A" d="M132.741,43.91C88.44,44.712,49.515,78.63,48.305,123.971c-0.508,19.048,7.955,37.233,17.988,52.894
				c10.207,15.932,25.871,32.091,25.888,52.028c0.002,2.545-0.055,5.09-0.111,7.634c-0.03,1.352,1.16,2.515,2.5,2.5
				c24.735-0.267,49.476-0.178,74.211,0c1.415,0.01,2.432-1.147,2.5-2.5c0.44-8.747,0.731-15.925,4.769-23.945
				c5.783-11.488,13.96-21.824,21.033-32.523c10.51-15.898,20.65-34.964,20.088-54.691c-0.605-21.264-8.4-40.665-23.318-55.967
				c-15.283-15.677-36.584-24.322-58.278-25.417c-0.95-0.04-1.9-0.065-2.852-0.075c-3.226-0.059-3.22,4.941,0,5
				c42.34,0.767,79.891,33.918,79.453,77.533c-0.226,22.506-13.231,42.116-25.402,60.017c-6.186,9.098-13.163,18.206-17.299,28.485
				c-2.842,7.064-2.815,14.091-3.192,21.583c0.833-0.833,1.667-1.667,2.5-2.5c-24.735-0.178-49.476-0.267-74.211,0
				c0.833,0.833,1.667,1.667,2.5,2.5c0.15-6.854,0.563-13.667-1.386-20.313c-2.788-9.506-9.064-17.97-14.534-26.067
				c-12.918-19.126-26.858-38.96-27.841-62.869c-1.807-43.933,37.432-77.607,79.432-78.369
				C135.961,48.852,135.967,43.851,132.741,43.91L132.741,43.91z"/>
		</g>
	</g>
	<g>
		<polygon fill="#FFDB00" points="156.583,76.958 140.556,121.504 170.156,121.496 108.31,185.354 122.544,139.888 95.709,139.935 
					"/>
		<g>
			<path fill="#1A1A1A" d="M154.173,76.294c-5.342,14.849-10.685,29.697-16.027,44.545c-0.558,1.55,0.88,3.165,2.411,3.165
				c9.867-0.002,19.733-0.005,29.6-0.008c-0.589-1.422-1.179-2.845-1.768-4.268c-20.615,21.286-41.23,42.571-61.846,63.857
				c1.393,0.811,2.786,1.621,4.178,2.433c4.745-15.156,9.49-30.311,14.234-45.466c0.488-1.559-0.828-3.167-2.411-3.165
				c-8.945,0.016-17.89,0.031-26.835,0.047c0.589,1.422,1.179,2.845,1.768,4.268c20.292-20.992,40.583-41.984,60.874-62.976
				c2.241-2.318-1.291-5.857-3.535-3.535c-20.292,20.992-40.583,41.984-60.874,62.976c-1.504,1.555-0.442,4.271,1.768,4.268
				c8.945-0.016,17.89-0.031,26.835-0.047c-0.804-1.055-1.607-2.11-2.411-3.165c-4.745,15.155-9.49,30.311-14.234,45.465
				c-0.752,2.404,2.462,4.205,4.178,2.433c20.615-21.286,41.23-42.571,61.846-63.857c1.507-1.556,0.439-4.268-1.768-4.268
				c-9.867,0.002-19.733,0.005-29.6,0.008c0.804,1.055,1.607,2.11,2.411,3.165c5.342-14.849,10.685-29.697,16.027-44.545
				C160.088,74.582,155.256,73.284,154.173,76.294z"/>
		</g>
	</g>
	<g>
		<polygon fill="#1A1A1A" points="168.802,248.076 94.981,255.18 94.57,236.91 168.802,236.91 		"/>
		<g>
			<path fill="#1A1A1A" d="M168.781,245.576c-24.604,2.304-49.207,4.608-73.811,6.912c0.833,0.833,1.667,1.667,2.5,2.5
				c-0.133-6.153-0.267-12.308-0.4-18.461c-0.833,0.833-1.667,1.667-2.5,2.5c24.737,0,49.474,0,74.211,0
				c-0.833-0.833-1.667-1.667-2.5-2.5c0,3.85,0,7.699,0,11.549c0,3.225,5,3.225,5,0c0-3.85,0-7.699,0-11.549
				c0-1.363-1.137-2.5-2.5-2.5c-24.737,0-49.474,0-74.211,0c-1.34,0-2.53,1.137-2.5,2.5c0.133,6.153,0.267,12.308,0.4,18.461
				c0.027,1.265,1.12,2.629,2.5,2.5c24.604-2.304,49.207-4.608,73.811-6.912C171.962,250.278,171.992,245.275,168.781,245.576z"/>
		</g>
	</g>
	<g>
		<polygon fill="#1A1A1A" points="94.802,288.438 168.497,281.486 168.781,299.91 94.802,299.91 		"/>
		<g>
			<path fill="#1A1A1A" d="M94.57,290.938c24.604-2.304,49.207-4.608,73.811-6.912c-0.833-0.833-1.667-1.667-2.5-2.5
				c0.133,6.154,0.267,12.309,0.4,18.463c0.833-0.833,1.667-1.667,2.5-2.5c-24.737,0-49.474,0-74.211,0
				c0.833,0.833,1.667,1.667,2.5,2.5c0-3.851,0-7.7,0-11.551c0-3.225-5-3.225-5,0c0,3.851,0,7.7,0,11.551c0,1.363,1.137,2.5,2.5,2.5
				c24.737,0,49.474,0,74.211,0c1.34,0,2.53-1.137,2.5-2.5c-0.133-6.154-0.267-12.309-0.4-18.463c-0.027-1.265-1.12-2.629-2.5-2.5
				c-24.604,2.304-49.207,4.608-73.811,6.912C91.388,286.235,91.359,291.238,94.57,290.938z"/>
		</g>
	</g>
	<g>
		<polygon fill="#1A1A1A" points="168.802,269.646 94.802,276.91 94.802,266.91 168.802,259.322 		"/>
		<g>
			<path fill="#1A1A1A" d="M168.781,267.146c-24.737,2.421-49.474,4.843-74.211,7.264c0.833,0.833,1.667,1.667,2.5,2.5
				c0-3.333,0-6.667,0-10c-0.833,0.833-1.667,1.667-2.5,2.5c24.737-2.529,49.474-5.059,74.211-7.588
				c-0.833-0.833-1.667-1.667-2.5-2.5c0,3.441,0,6.883,0,10.324c0,3.225,5,3.225,5,0c0-3.441,0-6.883,0-10.324
				c0-1.258-1.142-2.639-2.5-2.5c-24.737,2.529-49.474,5.059-74.211,7.588c-1.355,0.139-2.5,1.032-2.5,2.5c0,3.333,0,6.667,0,10
				c0,1.262,1.141,2.633,2.5,2.5c24.737-2.421,49.474-4.843,74.211-7.264C171.959,271.835,171.99,266.832,168.781,267.146z"/>
		</g>
	</g>
	<g>
		<rect x="118.802" y="301.91" fill="#1A1A1A" width="26" height="6"/>
		<g>
			<path fill="#1A1A1A" d="M144.494,305.742c-8.645,0-17.291,0-25.936,0c0.833,0.833,1.667,1.667,2.5,2.5c0-2.11,0-4.222,0-6.332
				c-0.833,0.833-1.667,1.667-2.5,2.5c8.645,0,17.291,0,25.936,0c-0.833-0.833-1.667-1.667-2.5-2.5c0,2.11,0,4.222,0,6.332
				c0,3.225,5,3.225,5,0c0-2.11,0-4.222,0-6.332c0-1.363-1.137-2.5-2.5-2.5c-8.645,0-17.291,0-25.936,0c-1.363,0-2.5,1.137-2.5,2.5
				c0,2.11,0,4.222,0,6.332c0,1.363,1.137,2.5,2.5,2.5c8.645,0,17.291,0,25.936,0C147.718,310.742,147.718,305.742,144.494,305.742z
				"/>
		</g>
	</g>
</g>
<g id="Layer_2" display="none">
	<polyline display="inline" fill="none" stroke="#C2C4C6" points="132.537,22.369 132.564,22.369 132.564,22.385 	"/>
	<g display="inline">
		<polygon fill="#FFDB00" points="135.969,34.91 130.302,34.91 127.302,6.91 138.969,6.91 		"/>
		<g>
			<path fill="#1A1A1A" d="M135.969,33.242c-1.889,0-3.778,0-5.667,0c0.5,0.5,1,1,1.5,1.5c-1-9.333-2-18.667-3-28
				c-0.5,0.5-1,1-1.5,1.5c3.889,0,7.778,0,11.667,0c-0.5-0.5-1-1-1.5-1.5c-1,9.333-2,18.667-3,28c-0.206,1.922,2.796,1.903,3,0
				c1-9.333,2-18.667,3-28c0.087-0.814-0.749-1.5-1.5-1.5c-3.889,0-7.778,0-11.667,0c-0.751,0-1.587,0.686-1.5,1.5
				c1,9.333,2,18.667,3,28c0.087,0.813,0.616,1.5,1.5,1.5c1.889,0,3.778,0,5.667,0C137.904,36.242,137.904,33.242,135.969,33.242z"
				/>
		</g>
	</g>
	<g display="inline">
		<polygon fill="#FFDB00" points="101.586,38.929 96.261,40.867 83.867,15.582 94.83,11.592 		"/>
		<g>
			<path fill="#1A1A1A" d="M101.188,37.482c-1.775,0.646-3.55,1.292-5.325,1.938c0.565,0.229,1.129,0.459,1.694,0.689
				c-4.132-8.429-8.263-16.857-12.395-25.286c-0.299,0.735-0.598,1.469-0.896,2.204c3.654-1.33,7.309-2.66,10.963-3.99
				c-0.615-0.349-1.23-0.698-1.845-1.047c2.252,9.112,4.504,18.225,6.757,27.337c0.464,1.877,3.357,1.081,2.893-0.798
				c-2.252-9.112-4.504-18.225-6.757-27.337c-0.185-0.747-1.09-1.322-1.845-1.047c-3.654,1.33-7.309,2.66-10.963,3.99
				c-0.952,0.346-1.346,1.286-0.896,2.204c4.132,8.428,8.263,16.857,12.395,25.285c0.276,0.563,1.103,0.905,1.694,0.689
				c1.775-0.646,3.55-1.292,5.325-1.938C103.788,39.719,103.01,36.819,101.188,37.482z"/>
		</g>
	</g>
	<g display="inline">
		<polygon fill="#FFDB00" points="71.396,54.133 67.054,57.776 46.759,38.254 55.697,30.755 		"/>
		<g>
			<path fill="#1A1A1A" d="M70.335,53.072c-1.447,1.214-2.895,2.429-4.342,3.643c0.707,0,1.414,0,2.121,0
				c-6.765-6.507-13.53-13.015-20.295-19.521c0,0.707,0,1.414,0,2.121c2.979-2.5,5.958-4.999,8.938-7.499
				c-0.785-0.101-1.57-0.202-2.356-0.303c5.233,7.792,10.466,15.585,15.699,23.377c1.073,1.597,3.672,0.097,2.591-1.514
				c-5.233-7.793-10.466-15.585-15.699-23.378c-0.571-0.85-1.588-0.948-2.356-0.303c-2.979,2.5-5.958,4.999-8.938,7.499
				c-0.619,0.519-0.551,1.591,0,2.121c6.765,6.507,13.53,13.015,20.295,19.521c0.628,0.604,1.486,0.533,2.121,0
				c1.447-1.214,2.895-2.429,4.342-3.643C73.94,53.948,71.807,51.837,70.335,53.072z"/>
		</g>
	</g>
	<g display="inline">
		<polygon fill="#FFDB00" points="49.029,78.324 46.195,83.233 20.447,71.83 26.281,61.727 		"/>
		<g>
			<path fill="#1A1A1A" d="M47.733,77.567c-0.944,1.636-1.889,3.272-2.834,4.909c0.684-0.18,1.368-0.359,2.052-0.539
				c-8.583-3.801-17.165-7.602-25.748-11.403c0.18,0.684,0.359,1.368,0.539,2.052c1.944-3.368,3.889-6.735,5.834-10.104
				c-0.684,0.18-1.368,0.359-2.052,0.539c7.583,5.532,15.165,11.065,22.748,16.598c1.565,1.142,3.06-1.463,1.514-2.591
				c-7.583-5.532-15.165-11.065-22.748-16.598c-0.659-0.48-1.674-0.116-2.052,0.539c-1.944,3.368-3.889,6.735-5.834,10.104
				c-0.374,0.647-0.213,1.719,0.539,2.052c8.583,3.801,17.165,7.602,25.748,11.403c0.744,0.329,1.61,0.228,2.052-0.539
				c0.944-1.636,1.889-3.272,2.834-4.909C51.293,77.403,48.7,75.893,47.733,77.567z"/>
		</g>
	</g>
	<g display="inline">
		<polygon fill="#FFDB00" points="37.167,107.084 36.183,112.667 8.087,110.757 10.112,99.268 		"/>
		<g>
			<path fill="#1A1A1A" d="M35.721,106.686c-0.328,1.861-0.656,3.722-0.984,5.582c0.482-0.367,0.964-0.734,1.446-1.101
				c-9.365-0.636-18.731-1.273-28.096-1.909c0.482,0.633,0.964,1.266,1.446,1.899c0.675-3.83,1.351-7.66,2.025-11.489
				c-0.615,0.349-1.23,0.698-1.845,1.047c9.019,2.605,18.037,5.211,27.055,7.816c1.863,0.538,2.653-2.357,0.798-2.893
				c-9.019-2.605-18.037-5.211-27.055-7.816c-0.729-0.211-1.705,0.249-1.845,1.047c-0.675,3.83-1.351,7.66-2.025,11.489
				c-0.176,1,0.412,1.829,1.446,1.899c9.365,0.636,18.731,1.273,28.096,1.909c0.614,0.042,1.337-0.484,1.446-1.101
				c0.328-1.861,0.656-3.722,0.984-5.582C38.947,105.592,36.057,104.783,35.721,106.686z"/>
		</g>
	</g>
	<g display="inline">
		<polygon fill="#FFDB00" points="34.671,136.044 35.656,141.626 8.602,149.441 6.575,137.952 		"/>
		<g>
			<path fill="#1A1A1A" d="M33.225,136.443c0.328,1.86,0.656,3.721,0.984,5.582c0.349-0.615,0.698-1.23,1.047-1.845
				c-9.018,2.604-18.036,5.209-27.054,7.814c0.615,0.349,1.23,0.698,1.845,1.047c-0.675-3.83-1.351-7.659-2.026-11.489
				c-0.482,0.633-0.964,1.266-1.446,1.899c9.365-0.636,18.731-1.272,28.096-1.908c1.919-0.13,1.932-3.131,0-3
				c-9.365,0.636-18.731,1.272-28.096,1.908c-1.035,0.07-1.623,0.899-1.446,1.899c0.675,3.83,1.351,7.659,2.026,11.489
				c0.141,0.799,1.116,1.258,1.845,1.047c9.018-2.604,18.036-5.209,27.054-7.814c0.84-0.243,1.191-1.032,1.047-1.845
				c-0.328-1.86-0.656-3.721-0.984-5.582C35.782,133.743,32.892,134.552,33.225,136.443z"/>
		</g>
	</g>
	<g display="inline">
		<polygon fill="#FFDB00" points="42.122,162.374 44.694,167.424 21.107,182.808 15.81,172.412 		"/>
		<g>
			<path fill="#1A1A1A" d="M40.826,163.131c0.857,1.684,1.715,3.367,2.572,5.05c0.18-0.684,0.359-1.368,0.539-2.052
				c-7.862,5.128-15.725,10.256-23.587,15.384c0.684,0.18,1.368,0.359,2.052,0.539c-1.766-3.465-3.531-6.931-5.297-10.396
				c-0.299,0.734-0.598,1.469-0.896,2.203c8.771-3.346,17.541-6.692,26.312-10.038c1.789-0.682,1.013-3.583-0.798-2.893
				c-8.771,3.346-17.541,6.692-26.312,10.038c-0.934,0.356-1.366,1.281-0.896,2.203c1.766,3.465,3.531,6.931,5.297,10.396
				c0.358,0.703,1.396,0.967,2.052,0.538c7.862-5.127,15.725-10.255,23.587-15.383c0.715-0.466,0.924-1.296,0.539-2.052
				c-0.857-1.684-1.715-3.367-2.572-5.05C42.539,159.893,39.95,161.411,40.826,163.131z"/>
		</g>
	</g>
	<g display="inline">
		<polygon fill="#FFDB00" points="57.787,188.004 60.957,192.702 39.419,210.846 32.896,201.174 		"/>
		<g>
			<path fill="#1A1A1A" d="M56.491,188.761c1.057,1.566,2.113,3.133,3.17,4.698c0.079-0.605,0.157-1.212,0.235-1.817
				c-7.179,6.048-14.358,12.096-21.537,18.144c0.785,0.102,1.57,0.202,2.356,0.304c-2.175-3.225-4.349-6.448-6.523-9.672
				c-0.18,0.684-0.359,1.368-0.539,2.052c8.297-4.39,16.594-8.779,24.891-13.17c1.711-0.904,0.195-3.494-1.514-2.59
				c-8.297,4.39-16.594,8.779-24.891,13.17c-0.689,0.364-0.982,1.395-0.539,2.052c2.175,3.225,4.349,6.448,6.523,9.672
				c0.572,0.848,1.587,0.951,2.356,0.304c7.179-6.048,14.358-12.096,21.537-18.144c0.486-0.41,0.585-1.298,0.235-1.817
				c-1.057-1.566-2.113-3.133-3.17-4.698C58.006,185.652,55.406,187.152,56.491,188.761z"/>
		</g>
	</g>
	<g display="inline">
		<polygon fill="#FFDB00" points="163.575,37.929 168.9,39.867 181.294,14.582 170.332,10.592 		"/>
		<g>
			<path fill="#1A1A1A" d="M163.176,39.375c1.775,0.646,3.55,1.292,5.325,1.938c0.592,0.215,1.418-0.126,1.694-0.689
				c4.131-8.428,8.263-16.857,12.395-25.285c0.449-0.917,0.056-1.857-0.896-2.204c-3.654-1.33-7.309-2.66-10.963-3.99
				c-0.755-0.275-1.661,0.301-1.845,1.047c-2.252,9.112-4.505,18.225-6.757,27.337c-0.464,1.878,2.429,2.675,2.893,0.798
				c2.252-9.112,4.505-18.225,6.757-27.337c-0.615,0.349-1.23,0.698-1.845,1.047c3.654,1.33,7.309,2.66,10.963,3.99
				c-0.299-0.734-0.598-1.469-0.896-2.204c-4.131,8.429-8.263,16.857-12.395,25.286c0.565-0.23,1.129-0.46,1.694-0.689
				c-1.775-0.646-3.55-1.292-5.325-1.938C162.151,35.819,161.373,38.719,163.176,39.375z"/>
		</g>
	</g>
	<g display="inline">
		<polygon fill="#FFDB00" points="193.764,53.133 198.106,56.776 218.401,37.254 209.465,29.755 		"/>
		<g>
			<path fill="#1A1A1A" d="M192.704,54.193c1.447,1.214,2.895,2.429,4.342,3.643c0.635,0.533,1.493,0.604,2.121,0
				c6.765-6.507,13.53-13.014,20.295-19.521c0.551-0.53,0.619-1.602,0-2.121c-2.979-2.5-5.957-5-8.936-7.499
				c-0.768-0.645-1.785-0.546-2.356,0.303c-5.233,7.793-10.467,15.585-15.701,23.378c-1.082,1.611,1.518,3.11,2.591,1.514
				c5.233-7.792,10.467-15.585,15.701-23.377c-0.786,0.101-1.571,0.202-2.356,0.303c2.979,2.5,5.957,5,8.936,7.499
				c0-0.707,0-1.414,0-2.121c-6.765,6.507-13.53,13.014-20.295,19.521c0.707,0,1.414,0,2.121,0
				c-1.447-1.214-2.895-2.429-4.342-3.643C193.354,50.837,191.22,52.948,192.704,54.193z"/>
		</g>
	</g>
	<g display="inline">
		<polygon fill="#FFDB00" points="216.131,77.324 218.965,82.233 244.713,70.83 238.881,60.727 		"/>
		<g>
			<path fill="#1A1A1A" d="M214.836,78.081c0.945,1.637,1.89,3.273,2.834,4.909c0.442,0.766,1.309,0.868,2.052,0.539
				c8.583-3.801,17.166-7.603,25.748-11.403c0.751-0.333,0.912-1.405,0.539-2.052c-1.944-3.368-3.888-6.736-5.832-10.104
				c-0.378-0.655-1.394-1.019-2.052-0.539c-7.583,5.533-15.167,11.065-22.75,16.598c-1.546,1.128-0.052,3.733,1.514,2.591
				c7.583-5.533,15.167-11.065,22.75-16.598c-0.684-0.18-1.368-0.359-2.052-0.539c1.944,3.368,3.888,6.736,5.832,10.104
				c0.18-0.684,0.359-1.368,0.539-2.052c-8.583,3.801-17.166,7.603-25.748,11.403c0.684,0.18,1.368,0.359,2.052,0.539
				c-0.945-1.637-1.89-3.273-2.834-4.909C216.46,74.893,213.867,76.403,214.836,78.081z"/>
		</g>
	</g>
	<g display="inline">
		<polygon fill="#FFDB00" points="227.995,106.084 228.979,111.667 257.075,109.757 255.049,98.268 		"/>
		<g>
			<path fill="#1A1A1A" d="M226.548,106.483c0.328,1.86,0.656,3.721,0.984,5.582c0.109,0.617,0.832,1.143,1.446,1.101
				c9.365-0.636,18.73-1.273,28.096-1.909c1.035-0.07,1.623-0.899,1.446-1.899c-0.675-3.83-1.35-7.659-2.025-11.489
				c-0.141-0.799-1.116-1.258-1.845-1.047c-9.018,2.605-18.036,5.211-27.055,7.816c-1.855,0.536-1.065,3.431,0.798,2.893
				c9.018-2.605,18.036-5.211,27.055-7.816c-0.615-0.349-1.23-0.698-1.845-1.047c0.675,3.83,1.35,7.659,2.025,11.489
				c0.482-0.633,0.964-1.266,1.446-1.899c-9.365,0.636-18.73,1.273-28.096,1.909c0.482,0.367,0.964,0.734,1.446,1.101
				c-0.328-1.86-0.656-3.721-0.984-5.582C229.105,103.783,226.215,104.592,226.548,106.483z"/>
		</g>
	</g>
	<g display="inline">
		<polygon fill="#FFDB00" points="230.489,135.044 229.504,140.626 256.559,148.441 258.586,136.952 		"/>
		<g>
			<path fill="#1A1A1A" d="M229.042,134.646c-0.328,1.861-0.656,3.722-0.984,5.582c-0.144,0.813,0.207,1.603,1.047,1.845
				c9.019,2.605,18.037,5.21,27.055,7.814c0.729,0.211,1.705-0.249,1.845-1.047c0.676-3.83,1.352-7.659,2.027-11.489
				c0.177-1-0.412-1.829-1.446-1.899c-9.366-0.636-18.732-1.272-28.098-1.908c-1.932-0.131-1.919,2.87,0,3
				c9.366,0.636,18.732,1.272,28.098,1.908c-0.482-0.633-0.964-1.266-1.446-1.899c-0.676,3.83-1.352,7.659-2.027,11.489
				c0.615-0.349,1.23-0.698,1.845-1.047c-9.019-2.605-18.037-5.21-27.055-7.814c0.349,0.615,0.698,1.23,1.047,1.845
				c0.328-1.861,0.656-3.722,0.984-5.582C232.269,133.552,229.378,132.743,229.042,134.646z"/>
		</g>
	</g>
	<g display="inline">
		<polygon fill="#FFDB00" points="223.04,161.374 220.467,166.424 244.054,181.808 249.351,171.412 		"/>
		<g>
			<path fill="#1A1A1A" d="M221.744,160.617c-0.857,1.683-1.715,3.366-2.572,5.05c-0.385,0.756-0.176,1.586,0.539,2.052
				c7.862,5.128,15.725,10.256,23.587,15.383c0.656,0.429,1.694,0.165,2.052-0.538c1.766-3.465,3.531-6.93,5.297-10.396
				c0.47-0.922,0.038-1.847-0.896-2.203c-8.771-3.346-17.541-6.692-26.312-10.038c-1.811-0.691-2.586,2.21-0.798,2.893
				c8.771,3.346,17.541,6.692,26.312,10.038c-0.299-0.734-0.598-1.469-0.896-2.203c-1.766,3.465-3.531,6.93-5.297,10.396
				c0.684-0.18,1.368-0.359,2.052-0.539c-7.862-5.128-15.725-10.256-23.587-15.384c0.18,0.684,0.359,1.369,0.539,2.052
				c0.857-1.683,1.715-3.366,2.572-5.05C225.211,160.411,222.623,158.893,221.744,160.617z"/>
		</g>
	</g>
	<g display="inline">
		<polygon fill="#FFDB00" points="207.374,187.004 204.206,191.702 225.741,209.846 232.266,200.174 		"/>
		<g>
			<path fill="#1A1A1A" d="M206.078,186.247c-1.056,1.565-2.112,3.132-3.168,4.698c-0.351,0.52-0.252,1.407,0.235,1.817
				c7.178,6.048,14.356,12.096,21.535,18.144c0.769,0.647,1.784,0.544,2.356-0.304c2.175-3.224,4.35-6.447,6.525-9.672
				c0.443-0.657,0.15-1.688-0.539-2.052c-8.297-4.391-16.595-8.78-24.893-13.17c-1.708-0.904-3.225,1.686-1.514,2.59
				c8.297,4.391,16.595,8.78,24.893,13.17c-0.18-0.684-0.359-1.368-0.539-2.052c-2.175,3.224-4.35,6.447-6.525,9.672
				c0.786-0.102,1.571-0.202,2.356-0.304c-7.178-6.048-14.356-12.096-21.535-18.144c0.078,0.605,0.156,1.212,0.235,1.817
				c1.056-1.565,2.112-3.132,3.168-4.698C209.754,186.152,207.153,184.652,206.078,186.247z"/>
		</g>
	</g>
</g>
</svg>
