<?xml version="1.0" encoding="utf-8"?>
<!-- Generator: Adobe Illustrator 16.0.0, SVG Export Plug-In . SVG Version: 6.00 Build 0)  -->
<!DOCTYPE svg PUBLIC "-//W3C//DTD SVG 1.1//EN" "http://www.w3.org/Graphics/SVG/1.1/DTD/svg11.dtd">
<svg version="1.1" id="Layer_1" xmlns="http://www.w3.org/2000/svg" xmlns:xlink="http://www.w3.org/1999/xlink" x="0px" y="0px"
	 width="274px" height="274px" viewBox="0 0 274 274" enable-background="new 0 0 274 274" xml:space="preserve">
<polyline fill="none" stroke="#C2C4C6" points="137.567,-18.873 137.595,-18.873 137.595,-18.857 "/>
<g>
	<radialGradient id="SVGID_1_" cx="139.5938" cy="87.6987" r="88.5167" fx="141.9161" fy="87.9124" gradientUnits="userSpaceOnUse">
		<stop  offset="0.5" style="stop-color:#FFFFFF"/>
		<stop  offset="0.5873" style="stop-color:#F6FCFF"/>
		<stop  offset="0.7325" style="stop-color:#DCF5FF"/>
		<stop  offset="0.9165" style="stop-color:#B3E9FF"/>
		<stop  offset="1" style="stop-color:#9EE3FF"/>
	</radialGradient>
	<path fill="url(#SVGID_1_)" d="M137.604,5.5c-45.34,0.456-81.948,35.614-81.948,78.927c0,0-0.881,20.574,14.542,45.347
		c15.422,24.772,28.354,38.755,29.236,53.031c0,0,0.25,2.291,0,12.813c0,0,29.873-0.325,74.211,0
		c0.408-8.11,0.541-10.841,0.541-10.841c0.881-14.274,15.383-30.23,30.805-55.002c15.423-24.773,14.543-45.347,14.543-45.347
		c0-43.313-36.609-78.471-81.948-78.927"/>
	<g>
		<path fill="#1A1A1A" d="M137.604,3C93.303,3.803,54.378,37.721,53.168,83.062c-0.508,19.048,7.955,37.233,17.988,52.894
			c10.206,15.931,25.871,32.091,25.889,52.028c0.002,2.545-0.055,5.09-0.111,7.634c-0.03,1.352,1.16,2.515,2.5,2.5
			c24.735-0.266,49.477-0.177,74.211,0c1.414,0.01,2.432-1.147,2.5-2.5c0.439-8.747,0.731-15.925,4.769-23.945
			c5.782-11.488,13.96-21.824,21.032-32.522c10.51-15.898,20.649-34.964,20.089-54.691c-0.604-21.264-8.4-40.665-23.318-55.967
			c-15.283-15.677-36.585-24.322-58.279-25.417c-0.95-0.04-1.9-0.065-2.852-0.075c-3.226-0.059-3.22,4.941,0,5
			c42.339,0.767,79.894,33.917,79.454,77.533c-0.228,22.506-13.231,42.115-25.403,60.017c-6.186,9.098-13.162,18.205-17.299,28.485
			c-2.843,7.063-2.815,14.09-3.192,21.582c0.833-0.833,1.667-1.667,2.5-2.5c-24.734-0.177-49.476-0.266-74.211,0
			c0.833,0.833,1.667,1.667,2.5,2.5c0.15-6.854,0.563-13.667-1.387-20.313c-2.788-9.506-9.065-17.97-14.534-26.066
			c-12.919-19.126-26.858-38.961-27.841-62.87C56.365,42.436,95.604,8.761,137.604,8C140.824,7.941,140.83,2.941,137.604,3
			L137.604,3z"/>
	</g>
</g>
<g>
	<polygon fill="#FFDB00" points="161.446,36.049 145.42,80.594 175.019,80.586 113.173,144.444 127.407,98.978 100.573,99.025 	"/>
	<g>
		<path fill="#1A1A1A" d="M159.035,35.384c-5.342,14.849-10.684,29.697-16.026,44.545c-0.558,1.55,0.881,3.165,2.411,3.165
			c9.866-0.002,19.732-0.005,29.599-0.008c-0.589-1.422-1.179-2.845-1.768-4.268c-20.615,21.286-41.23,42.572-61.846,63.858
			c1.393,0.811,2.786,1.621,4.178,2.433c4.745-15.156,9.49-30.312,14.234-45.467c0.488-1.559-0.828-3.167-2.411-3.165
			c-8.945,0.016-17.89,0.031-26.834,0.047c0.589,1.422,1.179,2.845,1.768,4.268c20.292-20.992,40.583-41.984,60.874-62.976
			c2.241-2.318-1.291-5.857-3.535-3.535c-20.291,20.992-40.583,41.984-60.874,62.976c-1.504,1.555-0.442,4.271,1.768,4.268
			c8.945-0.016,17.89-0.031,26.834-0.047c-0.804-1.055-1.607-2.11-2.411-3.165c-4.745,15.155-9.49,30.311-14.234,45.466
			c-0.752,2.404,2.462,4.205,4.178,2.433c20.615-21.286,41.23-42.572,61.846-63.858c1.508-1.556,0.439-4.268-1.768-4.268
			c-9.866,0.002-19.732,0.005-29.599,0.008c0.804,1.055,1.607,2.11,2.411,3.165c5.342-14.849,10.684-29.697,16.026-44.545
			C164.951,33.672,160.118,32.374,159.035,35.384z"/>
	</g>
</g>
<g>
	<polygon fill="#1A1A1A" points="174,207.167 100.011,214.271 99.434,196 174,196 	"/>
	<g>
		<path fill="#1A1A1A" d="M173.645,204.667c-24.604,2.304-49.208,4.608-73.811,6.912c0.833,0.833,1.667,1.667,2.5,2.5
			c-0.133-6.154-0.267-12.308-0.4-18.462c-0.833,0.833-1.667,1.667-2.5,2.5c24.737,0,49.474,0,74.211,0
			c-0.833-0.833-1.667-1.667-2.5-2.5c0,3.85,0,7.7,0,11.55c0,3.225,5,3.225,5,0c0-3.85,0-7.7,0-11.55c0-1.363-1.137-2.5-2.5-2.5
			c-24.737,0-49.474,0-74.211,0c-1.34,0-2.529,1.137-2.5,2.5c0.133,6.154,0.267,12.308,0.4,18.462c0.027,1.265,1.12,2.629,2.5,2.5
			c24.604-2.304,49.208-4.608,73.811-6.912C176.826,209.369,176.855,204.366,173.645,204.667z"/>
	</g>
</g>
<g>
	<polygon fill="#1A1A1A" points="99,247.528 173.027,240.577 173.645,259 99,259 	"/>
	<g>
		<path fill="#1A1A1A" d="M99.434,250.028c24.604-2.304,49.207-4.608,73.811-6.912c-0.833-0.833-1.667-1.667-2.5-2.5
			c0.134,6.154,0.267,12.308,0.4,18.462c0.833-0.833,1.667-1.667,2.5-2.5c-24.737,0-49.474,0-74.211,0
			c0.833,0.833,1.667,1.667,2.5,2.5c0-3.85,0-7.7,0-11.55c0-3.225-5-3.225-5,0c0,3.85,0,7.7,0,11.55c0,1.363,1.137,2.5,2.5,2.5
			c24.737,0,49.474,0,74.211,0c1.341,0,2.529-1.137,2.5-2.5c-0.134-6.154-0.267-12.308-0.4-18.462c-0.027-1.265-1.12-2.629-2.5-2.5
			c-24.604,2.304-49.207,4.608-73.811,6.912C96.252,245.326,96.223,250.329,99.434,250.028z"/>
	</g>
</g>
<g>
	<polygon fill="#1A1A1A" points="174,228.736 99,236 99,226 174,218.412 	"/>
	<g>
		<path fill="#1A1A1A" d="M173.645,226.236c-24.737,2.421-49.474,4.843-74.211,7.264c0.833,0.833,1.667,1.667,2.5,2.5
			c0-3.333,0-6.667,0-10c-0.833,0.833-1.667,1.667-2.5,2.5c24.737-2.529,49.474-5.059,74.211-7.588
			c-0.833-0.833-1.667-1.667-2.5-2.5c0,3.441,0,6.883,0,10.324c0,3.225,5,3.225,5,0c0-3.441,0-6.883,0-10.324
			c0-1.258-1.142-2.639-2.5-2.5c-24.737,2.529-49.474,5.059-74.211,7.588c-1.355,0.139-2.5,1.032-2.5,2.5c0,3.333,0,6.667,0,10
			c0,1.262,1.141,2.633,2.5,2.5c24.737-2.421,49.474-4.843,74.211-7.264C176.823,230.925,176.854,225.922,173.645,226.236z"/>
	</g>
</g>
<g>
	<rect x="123" y="261" fill="#1A1A1A" width="26" height="6"/>
	<g>
		<path fill="#1A1A1A" d="M149.357,264.833c-8.646,0-17.291,0-25.937,0c0.833,0.833,1.667,1.667,2.5,2.5c0-2.111,0-4.222,0-6.333
			c-0.833,0.833-1.667,1.667-2.5,2.5c8.646,0,17.291,0,25.937,0c-0.833-0.833-1.667-1.667-2.5-2.5c0,2.111,0,4.222,0,6.333
			c0,3.225,5,3.225,5,0c0-2.111,0-4.222,0-6.333c0-1.363-1.137-2.5-2.5-2.5c-8.646,0-17.291,0-25.937,0c-1.363,0-2.5,1.137-2.5,2.5
			c0,2.111,0,4.222,0,6.333c0,1.362,1.137,2.5,2.5,2.5c8.646,0,17.291,0,25.937,0C152.582,269.833,152.582,264.833,149.357,264.833z
			"/>
	</g>
</g>
</svg>
