<?xml version="1.0" encoding="utf-8"?>
<!-- Generator: Adobe Illustrator 16.0.0, SVG Export Plug-In . SVG Version: 6.00 Build 0)  -->
<!DOCTYPE svg PUBLIC "-//W3C//DTD SVG 1.1//EN" "http://www.w3.org/Graphics/SVG/1.1/DTD/svg11.dtd">
<svg version="1.1" xmlns="http://www.w3.org/2000/svg" xmlns:xlink="http://www.w3.org/1999/xlink" x="0px" y="0px" width="315px"
	 height="315px" viewBox="0 0 315 315" enable-background="new 0 0 315 315" xml:space="preserve">
<g id="light_bulb">
	<polyline fill="none" stroke="#C2C4C6" points="155.4,22.46 155.428,22.46 155.428,22.476 	"/>
	<g>
		<g>
			<path fill="#1A1A1A" d="M155.437,44.333c-44.301,0.803-83.226,34.721-84.436,80.062c-0.508,19.048,7.955,37.233,17.988,52.894
				c10.206,15.931,25.871,32.091,25.889,52.028c0.002,2.545-0.055,5.09-0.111,7.634c-0.03,1.352,1.16,2.515,2.5,2.5
				c24.735-0.266,49.477-0.177,74.211,0c1.414,0.01,2.432-1.147,2.5-2.5c0.439-8.747,0.731-15.925,4.769-23.945
				c5.782-11.488,13.96-21.824,21.032-32.522c10.51-15.898,20.649-34.964,20.089-54.691c-0.604-21.264-8.4-40.665-23.318-55.967
				c-15.283-15.677-36.585-24.322-58.279-25.417c-0.95-0.04-1.9-0.065-2.852-0.075c-3.226-0.059-3.22,4.941,0,5
				c42.339,0.767,79.894,33.917,79.454,77.533c-0.228,22.506-13.231,42.115-25.403,60.017c-6.186,9.098-13.162,18.205-17.299,28.485
				c-2.843,7.063-2.815,14.09-3.192,21.582c0.833-0.833,1.667-1.667,2.5-2.5c-24.734-0.177-49.476-0.266-74.211,0
				c0.833,0.833,1.667,1.667,2.5,2.5c0.15-6.854,0.563-13.667-1.387-20.313c-2.788-9.506-9.065-17.97-14.534-26.066
				c-12.919-19.126-26.858-38.961-27.841-62.87c-1.807-43.933,37.432-77.607,79.432-78.369
				C158.657,49.274,158.663,44.274,155.437,44.333L155.437,44.333z"/>
		</g>
	</g>
	<g>
		<g>
			<path fill="#1A1A1A" d="M176.868,76.717c-5.342,14.849-10.684,29.697-16.026,44.545c-0.558,1.55,0.881,3.165,2.411,3.165
				c9.866-0.002,19.732-0.005,29.599-0.008c-0.589-1.422-1.179-2.845-1.768-4.268c-20.615,21.286-41.23,42.572-61.846,63.858
				c1.393,0.811,2.786,1.621,4.178,2.433c4.745-15.156,9.49-30.312,14.234-45.467c0.488-1.559-0.828-3.167-2.411-3.165
				c-8.945,0.016-17.89,0.031-26.834,0.047c0.589,1.422,1.179,2.845,1.768,4.268c20.292-20.992,40.583-41.984,60.874-62.976
				c2.241-2.318-1.291-5.857-3.535-3.535c-20.291,20.992-40.583,41.984-60.874,62.976c-1.504,1.555-0.442,4.271,1.768,4.268
				c8.945-0.016,17.89-0.031,26.834-0.047c-0.804-1.055-1.607-2.11-2.411-3.165c-4.745,15.155-9.49,30.311-14.234,45.466
				c-0.752,2.404,2.462,4.205,4.178,2.433c20.615-21.286,41.23-42.572,61.846-63.858c1.508-1.556,0.439-4.268-1.768-4.268
				c-9.866,0.002-19.732,0.005-29.599,0.008c0.804,1.055,1.607,2.11,2.411,3.165c5.342-14.849,10.684-29.697,16.026-44.545
				C182.784,75.005,177.951,73.707,176.868,76.717z"/>
		</g>
	</g>
	<g>
		<polygon fill="#1A1A1A" points="191.833,248.5 117.844,255.604 117.267,237.333 191.833,237.333 		"/>
		<g>
			<path fill="#1A1A1A" d="M191.478,246c-24.604,2.304-49.208,4.608-73.811,6.912c0.833,0.833,1.667,1.667,2.5,2.5
				c-0.133-6.154-0.267-12.308-0.4-18.462c-0.833,0.833-1.667,1.667-2.5,2.5c24.737,0,49.474,0,74.211,0
				c-0.833-0.833-1.667-1.667-2.5-2.5c0,3.85,0,7.7,0,11.55c0,3.225,5,3.225,5,0c0-3.85,0-7.7,0-11.55c0-1.363-1.137-2.5-2.5-2.5
				c-24.737,0-49.474,0-74.211,0c-1.34,0-2.529,1.137-2.5,2.5c0.133,6.154,0.267,12.308,0.4,18.462c0.027,1.265,1.12,2.629,2.5,2.5
				c24.604-2.304,49.208-4.608,73.811-6.912C194.659,250.702,194.688,245.699,191.478,246z"/>
		</g>
	</g>
	<g>
		<polygon fill="#1A1A1A" points="116.833,288.861 190.86,281.91 191.478,300.333 116.833,300.333 		"/>
		<g>
			<path fill="#1A1A1A" d="M117.267,291.361c24.604-2.304,49.207-4.608,73.811-6.912c-0.833-0.833-1.667-1.667-2.5-2.5
				c0.134,6.154,0.267,12.308,0.4,18.462c0.833-0.833,1.667-1.667,2.5-2.5c-24.737,0-49.474,0-74.211,0
				c0.833,0.833,1.667,1.667,2.5,2.5c0-3.85,0-7.7,0-11.55c0-3.225-5-3.225-5,0c0,3.85,0,7.7,0,11.55c0,1.363,1.137,2.5,2.5,2.5
				c24.737,0,49.474,0,74.211,0c1.341,0,2.529-1.137,2.5-2.5c-0.134-6.154-0.267-12.308-0.4-18.462c-0.027-1.265-1.12-2.629-2.5-2.5
				c-24.604,2.304-49.207,4.608-73.811,6.912C114.085,286.659,114.056,291.662,117.267,291.361z"/>
		</g>
	</g>
	<g>
		<polygon fill="#1A1A1A" points="191.833,270.069 116.833,277.333 116.833,267.333 191.833,259.745 		"/>
		<g>
			<path fill="#1A1A1A" d="M191.478,267.569c-24.737,2.421-49.474,4.843-74.211,7.264c0.833,0.833,1.667,1.667,2.5,2.5
				c0-3.333,0-6.667,0-10c-0.833,0.833-1.667,1.667-2.5,2.5c24.737-2.529,49.474-5.059,74.211-7.588
				c-0.833-0.833-1.667-1.667-2.5-2.5c0,3.441,0,6.883,0,10.324c0,3.225,5,3.225,5,0c0-3.441,0-6.883,0-10.324
				c0-1.258-1.142-2.639-2.5-2.5c-24.737,2.529-49.474,5.059-74.211,7.588c-1.355,0.139-2.5,1.032-2.5,2.5c0,3.333,0,6.667,0,10
				c0,1.262,1.141,2.633,2.5,2.5c24.737-2.421,49.474-4.843,74.211-7.264C194.656,272.258,194.687,267.255,191.478,267.569z"/>
		</g>
	</g>
	<g>
		<rect x="140.833" y="302.333" fill="#1A1A1A" width="26" height="6"/>
		<g>
			<path fill="#1A1A1A" d="M167.19,306.166c-8.646,0-17.291,0-25.937,0c0.833,0.833,1.667,1.667,2.5,2.5c0-2.111,0-4.222,0-6.333
				c-0.833,0.833-1.667,1.667-2.5,2.5c8.646,0,17.291,0,25.937,0c-0.833-0.833-1.667-1.667-2.5-2.5c0,2.111,0,4.222,0,6.333
				c0,3.225,5,3.225,5,0c0-2.111,0-4.222,0-6.333c0-1.363-1.137-2.5-2.5-2.5c-8.646,0-17.291,0-25.937,0c-1.363,0-2.5,1.137-2.5,2.5
				c0,2.111,0,4.222,0,6.333c0,1.362,1.137,2.5,2.5,2.5c8.646,0,17.291,0,25.937,0C170.415,311.166,170.415,306.166,167.19,306.166z
				"/>
		</g>
	</g>
</g>
<g id="rays">
	<g>
		<polygon fill="#1A1A1A" points="158.833,35.333 153.167,35.333 150.167,7.333 161.833,7.333 		"/>
		<g>
			<path fill="#1A1A1A" d="M158.833,33.333c-1.889,0-3.777,0-5.666,0c0.5,0.5,1,1,1.5,1.5c-1-9.333-2-18.667-3-28
				c-0.5,0.5-1,1-1.5,1.5c3.889,0,7.777,0,11.666,0c-0.5-0.5-1-1-1.5-1.5c-1,9.333-2,18.667-3,28c-0.206,1.922,2.796,1.903,3,0
				c1-9.333,2-18.667,3-28c0.087-0.814-0.748-1.5-1.5-1.5c-3.889,0-7.777,0-11.666,0c-0.751,0-1.587,0.686-1.5,1.5
				c1,9.333,2,18.667,3,28c0.087,0.813,0.616,1.5,1.5,1.5c1.889,0,3.777,0,5.666,0C160.768,36.333,160.768,33.333,158.833,33.333z"
				/>
		</g>
	</g>
	<g>
		<polygon fill="#1A1A1A" points="124.45,39.02 119.125,40.958 106.73,15.672 117.693,11.683 		"/>
		<g>
			<path fill="#1A1A1A" d="M124.051,37.573c-1.775,0.646-3.55,1.292-5.325,1.938c0.565,0.229,1.129,0.459,1.694,0.689
				c-4.132-8.429-8.263-16.857-12.395-25.286c-0.299,0.734-0.598,1.469-0.896,2.203c3.654-1.33,7.309-2.66,10.963-3.99
				c-0.615-0.349-1.23-0.698-1.845-1.047c2.252,9.112,4.504,18.225,6.757,27.337c0.464,1.877,3.357,1.081,2.893-0.798
				c-2.252-9.112-4.504-18.225-6.757-27.337c-0.185-0.747-1.09-1.322-1.845-1.047c-3.654,1.33-7.309,2.66-10.963,3.99
				c-0.952,0.346-1.346,1.286-0.896,2.203c4.132,8.429,8.263,16.857,12.395,25.286c0.276,0.563,1.103,0.905,1.694,0.689
				c1.775-0.646,3.55-1.292,5.325-1.938C126.652,39.81,125.874,36.91,124.051,37.573z"/>
		</g>
	</g>
	<g>
		<polygon fill="#1A1A1A" points="94.26,54.224 89.918,57.867 69.624,38.345 78.56,30.846 		"/>
		<g>
			<path fill="#1A1A1A" d="M93.2,53.163c-1.447,1.214-2.895,2.429-4.342,3.643c0.707,0,1.414,0,2.121,0
				c-6.765-6.507-13.53-13.015-20.295-19.521c0,0.707,0,1.414,0,2.121c2.979-2.5,5.958-4.999,8.937-7.499
				c-0.785-0.101-1.57-0.202-2.356-0.304c5.233,7.792,10.467,15.585,15.7,23.377c1.073,1.597,3.673,0.097,2.591-1.514
				c-5.233-7.792-10.467-15.585-15.7-23.377c-0.571-0.85-1.588-0.949-2.356-0.304c-2.979,2.5-5.958,4.999-8.937,7.499
				c-0.619,0.519-0.551,1.591,0,2.121c6.765,6.507,13.53,13.015,20.295,19.521c0.628,0.604,1.486,0.533,2.121,0
				c1.447-1.214,2.895-2.429,4.342-3.643C96.805,54.039,94.671,51.928,93.2,53.163z"/>
		</g>
	</g>
	<g>
		<polygon fill="#1A1A1A" points="71.893,78.415 69.059,83.324 43.311,71.921 49.144,61.817 		"/>
		<g>
			<path fill="#1A1A1A" d="M70.598,77.658c-0.944,1.636-1.889,3.272-2.834,4.909c0.684-0.18,1.368-0.359,2.053-0.539
				c-8.583-3.801-17.166-7.602-25.748-11.403c0.179,0.684,0.358,1.368,0.538,2.052c1.944-3.368,3.889-6.735,5.833-10.104
				c-0.684,0.18-1.368,0.359-2.053,0.539c7.583,5.532,15.166,11.065,22.749,16.598c1.566,1.142,3.061-1.463,1.515-2.591
				c-7.583-5.532-15.166-11.065-22.749-16.598c-0.659-0.48-1.675-0.116-2.053,0.539c-1.944,3.368-3.889,6.735-5.833,10.104
				c-0.374,0.647-0.213,1.719,0.538,2.052c8.583,3.801,17.166,7.602,25.748,11.403c0.744,0.329,1.61,0.228,2.053-0.539
				c0.944-1.636,1.889-3.272,2.834-4.909C74.157,77.494,71.564,75.983,70.598,77.658z"/>
		</g>
	</g>
	<g>
		<polygon fill="#1A1A1A" points="60.031,107.175 59.046,112.757 30.951,110.849 32.976,99.359 		"/>
		<g>
			<path fill="#1A1A1A" d="M58.584,106.776c-0.328,1.861-0.656,3.722-0.984,5.582c0.482-0.367,0.964-0.734,1.446-1.101
				c-9.365-0.636-18.73-1.272-28.096-1.908c0.482,0.633,0.964,1.266,1.446,1.899c0.675-3.83,1.351-7.66,2.025-11.49
				c-0.615,0.349-1.23,0.698-1.845,1.047c9.019,2.605,18.037,5.211,27.055,7.816c1.863,0.538,2.653-2.357,0.798-2.893
				c-9.019-2.605-18.037-5.211-27.055-7.816c-0.729-0.211-1.705,0.249-1.845,1.047c-0.675,3.83-1.351,7.66-2.025,11.49
				c-0.176,1,0.412,1.829,1.446,1.899c9.365,0.636,18.73,1.272,28.096,1.908c0.614,0.042,1.337-0.484,1.446-1.101
				c0.328-1.861,0.656-3.722,0.984-5.582C61.811,105.682,58.92,104.873,58.584,106.776z"/>
		</g>
	</g>
	<g>
		<polygon fill="#1A1A1A" points="57.536,136.136 58.52,141.718 31.465,149.532 29.439,138.043 		"/>
		<g>
			<path fill="#1A1A1A" d="M56.089,136.535c0.328,1.86,0.656,3.721,0.984,5.582c0.349-0.615,0.698-1.23,1.047-1.845
				c-9.018,2.604-18.036,5.209-27.055,7.814c0.615,0.349,1.23,0.698,1.845,1.047c-0.675-3.83-1.351-7.659-2.026-11.489
				c-0.482,0.633-0.964,1.266-1.446,1.899c9.366-0.636,18.731-1.271,28.097-1.907c1.919-0.13,1.932-3.131,0-3
				c-9.366,0.636-18.731,1.271-28.097,1.907c-1.035,0.07-1.623,0.899-1.446,1.899c0.675,3.83,1.351,7.659,2.026,11.489
				c0.141,0.799,1.116,1.258,1.845,1.047c9.018-2.604,18.036-5.209,27.055-7.814c0.84-0.243,1.191-1.032,1.047-1.845
				c-0.328-1.86-0.656-3.721-0.984-5.582C58.646,133.834,55.756,134.643,56.089,136.535z"/>
		</g>
	</g>
	<g>
		<polygon fill="#1A1A1A" points="64.985,162.465 67.558,167.515 43.971,182.898 38.674,172.503 		"/>
		<g>
			<path fill="#1A1A1A" d="M63.69,163.222c0.857,1.684,1.715,3.367,2.572,5.05c0.18-0.684,0.359-1.368,0.539-2.052
				c-7.862,5.128-15.725,10.256-23.587,15.384c0.684,0.179,1.368,0.358,2.052,0.538c-1.766-3.466-3.531-6.931-5.297-10.396
				c-0.299,0.734-0.598,1.469-0.896,2.203c8.771-3.346,17.541-6.692,26.312-10.038c1.789-0.682,1.013-3.583-0.798-2.893
				c-8.771,3.346-17.541,6.692-26.312,10.038c-0.934,0.356-1.366,1.281-0.896,2.203c1.766,3.465,3.531,6.931,5.297,10.396
				c0.358,0.703,1.396,0.967,2.052,0.538c7.862-5.128,15.725-10.255,23.587-15.383c0.715-0.466,0.924-1.296,0.539-2.052
				c-0.857-1.684-1.715-3.367-2.572-5.05C65.402,159.983,62.814,161.502,63.69,163.222z"/>
		</g>
	</g>
	<g>
		<polygon fill="#1A1A1A" points="80.651,188.095 83.82,192.793 62.284,210.937 55.759,201.265 		"/>
		<g>
			<path fill="#1A1A1A" d="M79.355,188.852c1.057,1.566,2.113,3.133,3.169,4.698c0.079-0.605,0.157-1.212,0.235-1.817
				c-7.179,6.048-14.357,12.096-21.536,18.144c0.785,0.102,1.57,0.202,2.356,0.304c-2.175-3.225-4.35-6.448-6.524-9.672
				c-0.18,0.684-0.359,1.368-0.538,2.052c8.297-4.39,16.594-8.779,24.892-13.17c1.71-0.904,0.194-3.494-1.515-2.59
				c-8.297,4.39-16.594,8.779-24.892,13.17c-0.688,0.364-0.981,1.395-0.538,2.052c2.175,3.225,4.35,6.448,6.524,9.672
				c0.572,0.848,1.587,0.951,2.356,0.304c7.179-6.048,14.357-12.096,21.536-18.144c0.487-0.41,0.585-1.298,0.235-1.817
				c-1.057-1.566-2.113-3.133-3.169-4.698C80.871,185.743,78.271,187.243,79.355,188.852z"/>
		</g>
	</g>
	<g>
		<polygon fill="#1A1A1A" points="186.438,38.02 191.764,39.958 204.158,14.672 193.195,10.683 		"/>
		<g>
			<path fill="#1A1A1A" d="M186.04,39.466c1.774,0.646,3.55,1.292,5.325,1.938c0.592,0.215,1.418-0.126,1.693-0.689
				c4.132-8.428,8.264-16.857,12.395-25.286c0.45-0.917,0.056-1.857-0.896-2.203c-3.654-1.33-7.309-2.66-10.963-3.99
				c-0.754-0.275-1.66,0.301-1.845,1.047c-2.252,9.112-4.505,18.225-6.757,27.337c-0.465,1.878,2.429,2.675,2.893,0.798
				c2.252-9.112,4.505-18.225,6.757-27.337c-0.615,0.349-1.23,0.698-1.845,1.047c3.654,1.33,7.309,2.66,10.963,3.99
				c-0.299-0.734-0.598-1.469-0.896-2.203c-4.132,8.428-8.264,16.857-12.395,25.286c0.564-0.23,1.129-0.46,1.693-0.689
				c-1.774-0.646-3.55-1.292-5.325-1.938C185.015,35.91,184.237,38.81,186.04,39.466z"/>
		</g>
	</g>
	<g>
		<polygon fill="#1A1A1A" points="216.628,53.224 220.97,56.867 241.265,37.345 232.329,29.846 		"/>
		<g>
			<path fill="#1A1A1A" d="M215.567,54.284c1.447,1.214,2.895,2.429,4.342,3.643c0.636,0.533,1.493,0.604,2.121,0
				c6.765-6.507,13.53-13.014,20.295-19.521c0.552-0.53,0.618-1.602,0-2.121c-2.979-2.5-5.957-5-8.936-7.499
				c-0.769-0.645-1.785-0.546-2.355,0.304c-5.234,7.792-10.468,15.585-15.701,23.377c-1.082,1.611,1.518,3.111,2.59,1.514
				c5.234-7.792,10.468-15.585,15.701-23.377c-0.785,0.102-1.57,0.203-2.355,0.304c2.979,2.5,5.957,5,8.936,7.499
				c0-0.707,0-1.414,0-2.121c-6.765,6.507-13.53,13.014-20.295,19.521c0.707,0,1.414,0,2.121,0
				c-1.447-1.214-2.895-2.429-4.342-3.643C216.217,50.928,214.083,53.039,215.567,54.284z"/>
		</g>
	</g>
	<g>
		<polygon fill="#1A1A1A" points="238.995,77.415 241.829,82.324 267.577,70.921 261.745,60.817 		"/>
		<g>
			<path fill="#1A1A1A" d="M237.7,78.172c0.944,1.637,1.889,3.273,2.834,4.909c0.442,0.766,1.309,0.868,2.052,0.539
				c8.583-3.801,17.166-7.603,25.748-11.403c0.751-0.333,0.912-1.405,0.538-2.052c-1.943-3.368-3.888-6.736-5.832-10.104
				c-0.378-0.655-1.393-1.019-2.052-0.539c-7.584,5.533-15.167,11.065-22.75,16.598c-1.546,1.128-0.052,3.733,1.514,2.591
				c7.584-5.533,15.167-11.065,22.75-16.598c-0.684-0.18-1.368-0.359-2.052-0.539c1.943,3.368,3.888,6.736,5.832,10.104
				c0.179-0.684,0.358-1.368,0.538-2.052c-8.583,3.801-17.166,7.603-25.748,11.403c0.684,0.18,1.368,0.359,2.052,0.539
				c-0.944-1.637-1.889-3.273-2.834-4.909C239.323,74.983,236.73,76.494,237.7,78.172z"/>
		</g>
	</g>
	<g>
		<polygon fill="#1A1A1A" points="250.858,106.175 251.843,111.757 279.938,109.849 277.913,98.359 		"/>
		<g>
			<path fill="#1A1A1A" d="M249.412,106.574c0.328,1.86,0.656,3.721,0.984,5.582c0.108,0.617,0.832,1.143,1.446,1.101
				c9.365-0.636,18.73-1.272,28.096-1.908c1.035-0.07,1.623-0.899,1.446-1.899c-0.675-3.83-1.351-7.66-2.025-11.49
				c-0.141-0.799-1.115-1.258-1.845-1.047c-9.019,2.605-18.037,5.21-27.055,7.816c-1.855,0.536-1.065,3.431,0.797,2.893
				c9.019-2.605,18.037-5.21,27.055-7.816c-0.615-0.349-1.229-0.698-1.845-1.047c0.675,3.83,1.351,7.66,2.025,11.49
				c0.482-0.633,0.964-1.266,1.446-1.899c-9.365,0.636-18.73,1.272-28.096,1.908c0.482,0.367,0.964,0.734,1.446,1.101
				c-0.328-1.86-0.656-3.721-0.984-5.582C251.97,103.873,249.078,104.682,249.412,106.574z"/>
		</g>
	</g>
	<g>
		<polygon fill="#1A1A1A" points="253.353,135.136 252.368,140.718 279.423,148.532 281.45,137.043 		"/>
		<g>
			<path fill="#1A1A1A" d="M251.906,134.737c-0.328,1.861-0.656,3.722-0.984,5.582c-0.144,0.813,0.207,1.603,1.048,1.845
				c9.018,2.605,18.036,5.21,27.055,7.814c0.729,0.211,1.704-0.249,1.845-1.047c0.676-3.83,1.352-7.66,2.027-11.489
				c0.177-1-0.412-1.829-1.446-1.899c-9.366-0.636-18.731-1.271-28.098-1.907c-1.932-0.131-1.919,2.87,0,3
				c9.366,0.636,18.731,1.271,28.098,1.907c-0.482-0.633-0.964-1.266-1.446-1.899c-0.676,3.83-1.352,7.66-2.027,11.489
				c0.615-0.349,1.229-0.698,1.845-1.047c-9.018-2.605-18.036-5.21-27.055-7.814c0.35,0.615,0.699,1.23,1.048,1.845
				c0.328-1.861,0.656-3.722,0.984-5.582C255.133,133.643,252.241,132.834,251.906,134.737z"/>
		</g>
	</g>
	<g>
		<polygon fill="#1A1A1A" points="245.903,161.465 243.331,166.515 266.918,181.898 272.215,171.503 		"/>
		<g>
			<path fill="#1A1A1A" d="M244.608,160.708c-0.857,1.683-1.715,3.366-2.572,5.05c-0.386,0.756-0.177,1.586,0.538,2.052
				c7.862,5.128,15.725,10.256,23.587,15.383c0.656,0.429,1.693,0.165,2.052-0.538c1.766-3.465,3.531-6.93,5.297-10.396
				c0.47-0.922,0.038-1.847-0.896-2.203c-8.771-3.346-17.541-6.692-26.312-10.038c-1.811-0.691-2.586,2.21-0.797,2.893
				c8.771,3.346,17.541,6.692,26.312,10.038c-0.299-0.734-0.598-1.469-0.896-2.203c-1.766,3.465-3.531,6.93-5.297,10.396
				c0.684-0.18,1.368-0.359,2.052-0.538c-7.862-5.128-15.725-10.256-23.587-15.384c0.18,0.684,0.359,1.368,0.538,2.052
				c0.857-1.683,1.715-3.366,2.572-5.05C248.074,160.502,245.486,158.983,244.608,160.708z"/>
		</g>
	</g>
	<g>
		<polygon fill="#1A1A1A" points="230.237,187.095 227.069,191.793 248.604,209.937 255.13,200.265 		"/>
		<g>
			<path fill="#1A1A1A" d="M228.942,186.338c-1.057,1.565-2.112,3.132-3.168,4.698c-0.351,0.52-0.252,1.407,0.234,1.817
				c7.179,6.048,14.356,12.096,21.535,18.144c0.769,0.647,1.784,0.544,2.355-0.304c2.176-3.224,4.351-6.447,6.525-9.672
				c0.444-0.657,0.151-1.688-0.538-2.052c-8.297-4.391-16.595-8.78-24.893-13.17c-1.708-0.904-3.225,1.686-1.514,2.59
				c8.297,4.391,16.595,8.78,24.893,13.17c-0.18-0.684-0.359-1.368-0.538-2.052c-2.176,3.224-4.351,6.447-6.525,9.672
				c0.785-0.102,1.57-0.202,2.355-0.304c-7.179-6.048-14.356-12.096-21.535-18.144c0.078,0.605,0.156,1.212,0.234,1.817
				c1.057-1.565,2.112-3.132,3.168-4.698C232.617,186.243,230.018,184.743,228.942,186.338z"/>
		</g>
	</g>
</g>
</svg>
