<?xml version="1.0" encoding="utf-8"?>
<!-- Generator: Adobe Illustrator 16.0.0, SVG Export Plug-In . SVG Version: 6.00 Build 0)  -->
<!DOCTYPE svg PUBLIC "-//W3C//DTD SVG 1.1//EN" "http://www.w3.org/Graphics/SVG/1.1/DTD/svg11.dtd">
<svg version="1.1" id="Layer_1" xmlns="http://www.w3.org/2000/svg" xmlns:xlink="http://www.w3.org/1999/xlink" x="0px" y="0px"
	 width="100px" height="100px" viewBox="0 0 100 100" enable-background="new 0 0 100 100" xml:space="preserve">
<rect fill="#EDEDED" stroke="#C8C8C8" stroke-miterlimit="10" width="8.333" height="8.333"/>
<rect x="8.333" fill="#EDEDED" stroke="#C8C8C8" stroke-miterlimit="10" width="8.333" height="8.333"/>
<rect x="16.667" fill="#EDEDED" stroke="#C8C8C8" stroke-miterlimit="10" width="8.333" height="8.333"/>
<rect x="25" fill="#EDEDED" stroke="#C8C8C8" stroke-miterlimit="10" width="8.333" height="8.333"/>
<rect x="33.333" fill="#EDEDED" stroke="#C8C8C8" stroke-miterlimit="10" width="8.333" height="8.333"/>
<rect x="41.667" fill="#EDEDED" stroke="#C8C8C8" stroke-miterlimit="10" width="8.333" height="8.333"/>
<rect x="50" fill="#EDEDED" stroke="#C8C8C8" stroke-miterlimit="10" width="8.333" height="8.333"/>
<rect x="58.333" fill="#EDEDED" stroke="#C8C8C8" stroke-miterlimit="10" width="8.334" height="8.333"/>
<rect x="66.667" fill="#EDEDED" stroke="#C8C8C8" stroke-miterlimit="10" width="8.333" height="8.333"/>
<rect x="75" fill="#EDEDED" stroke="#C8C8C8" stroke-miterlimit="10" width="8.333" height="8.333"/>
<rect x="83.333" fill="#EDEDED" stroke="#C8C8C8" stroke-miterlimit="10" width="8.334" height="8.333"/>
<rect x="91.667" fill="#EDEDED" stroke="#C8C8C8" stroke-miterlimit="10" width="8.333" height="8.333"/>
<rect y="8.333" fill="#EDEDED" stroke="#C8C8C8" stroke-miterlimit="10" width="8.333" height="8.333"/>
<rect x="8.333" y="8.333" fill="#EDEDED" stroke="#C8C8C8" stroke-miterlimit="10" width="8.333" height="8.333"/>
<rect x="16.667" y="8.333" fill="#1A1A1A" width="8.333" height="8.333"/>
<rect x="25" y="8.333" fill="#1A1A1A" width="8.333" height="8.333"/>
<rect x="33.333" y="8.333" fill="#1A1A1A" width="8.333" height="8.333"/>
<rect x="41.667" y="8.333" fill="#1A1A1A" width="8.333" height="8.333"/>
<rect x="50" y="8.333" fill="#1A1A1A" width="8.333" height="8.333"/>
<rect x="58.333" y="8.333" fill="#1A1A1A" width="8.334" height="8.333"/>
<rect x="66.667" y="8.333" fill="#1A1A1A" width="8.333" height="8.333"/>
<rect x="75" y="8.333" fill="#1A1A1A" width="8.333" height="8.333"/>
<rect x="83.333" y="8.333" fill="#EDEDED" stroke="#C8C8C8" stroke-miterlimit="10" width="8.334" height="8.333"/>
<rect x="91.667" y="8.333" fill="#EDEDED" stroke="#C8C8C8" stroke-miterlimit="10" width="8.333" height="8.333"/>
<rect y="16.667" fill="#EDEDED" stroke="#C8C8C8" stroke-miterlimit="10" width="8.333" height="8.333"/>
<rect x="8.333" y="16.667" fill="#EDEDED" stroke="#C8C8C8" stroke-miterlimit="10" width="8.333" height="8.333"/>
<rect x="16.667" y="16.667" fill="#1A1A1A" width="8.333" height="8.333"/>
<rect x="25" y="16.667" fill="#1A1A1A" width="8.333" height="8.333"/>
<rect x="33.333" y="16.667" fill="#1A1A1A" width="8.333" height="8.333"/>
<rect x="41.667" y="16.667" fill="#1A1A1A" width="8.333" height="8.333"/>
<rect x="50" y="16.667" fill="#1A1A1A" width="8.333" height="8.333"/>
<rect x="58.333" y="16.667" fill="#1A1A1A" width="8.334" height="8.333"/>
<rect x="66.667" y="16.667" fill="#1A1A1A" width="8.333" height="8.333"/>
<rect x="75" y="16.667" fill="#1A1A1A" width="8.333" height="8.333"/>
<rect x="83.333" y="16.667" fill="#EDEDED" stroke="#C8C8C8" stroke-miterlimit="10" width="8.334" height="8.333"/>
<rect x="91.667" y="16.667" fill="#EDEDED" stroke="#C8C8C8" stroke-miterlimit="10" width="8.333" height="8.333"/>
<rect y="25" fill="#EDEDED" stroke="#C8C8C8" stroke-miterlimit="10" width="8.333" height="8.333"/>
<rect x="8.333" y="25" fill="#EDEDED" stroke="#C8C8C8" stroke-miterlimit="10" width="8.333" height="8.333"/>
<rect x="16.667" y="25" fill="#1A1A1A" width="8.333" height="8.333"/>
<rect x="25" y="25" fill="#1A1A1A" width="8.333" height="8.333"/>
<rect x="33.333" y="25" fill="#1A1A1A" width="8.333" height="8.333"/>
<rect x="41.667" y="25" fill="#EDEDED" stroke="#C8C8C8" stroke-miterlimit="10" width="8.333" height="8.333"/>
<rect x="50" y="25" fill="#EDEDED" stroke="#C8C8C8" stroke-miterlimit="10" width="8.333" height="8.333"/>
<rect x="58.333" y="25" fill="#EDEDED" stroke="#C8C8C8" stroke-miterlimit="10" width="8.334" height="8.333"/>
<rect x="66.667" y="25" fill="#EDEDED" stroke="#C8C8C8" stroke-miterlimit="10" width="8.333" height="8.333"/>
<rect x="75" y="25" fill="#EDEDED" stroke="#C8C8C8" stroke-miterlimit="10" width="8.333" height="8.333"/>
<rect x="83.333" y="25" fill="#EDEDED" stroke="#C8C8C8" stroke-miterlimit="10" width="8.334" height="8.333"/>
<rect x="91.667" y="25" fill="#EDEDED" stroke="#C8C8C8" stroke-miterlimit="10" width="8.333" height="8.333"/>
<rect y="33.333" fill="#EDEDED" stroke="#C8C8C8" stroke-miterlimit="10" width="8.333" height="8.333"/>
<rect x="8.333" y="33.333" fill="#EDEDED" stroke="#C8C8C8" stroke-miterlimit="10" width="8.333" height="8.333"/>
<rect x="16.667" y="33.333" fill="#1A1A1A" width="8.333" height="8.333"/>
<rect x="25" y="33.333" fill="#1A1A1A" width="8.333" height="8.333"/>
<rect x="33.333" y="33.333" fill="#1A1A1A" width="8.333" height="8.333"/>
<rect x="41.667" y="33.333" fill="#EDEDED" stroke="#C8C8C8" stroke-miterlimit="10" width="8.333" height="8.333"/>
<rect x="50" y="33.333" fill="#EDEDED" stroke="#C8C8C8" stroke-miterlimit="10" width="8.333" height="8.333"/>
<rect x="58.333" y="33.333" fill="#EDEDED" stroke="#C8C8C8" stroke-miterlimit="10" width="8.334" height="8.333"/>
<rect x="66.667" y="33.333" fill="#EDEDED" stroke="#C8C8C8" stroke-miterlimit="10" width="8.333" height="8.333"/>
<rect x="75" y="33.333" fill="#EDEDED" stroke="#C8C8C8" stroke-miterlimit="10" width="8.333" height="8.333"/>
<rect x="83.333" y="33.333" fill="#EDEDED" stroke="#C8C8C8" stroke-miterlimit="10" width="8.334" height="8.333"/>
<rect x="91.667" y="33.333" fill="#EDEDED" stroke="#C8C8C8" stroke-miterlimit="10" width="8.333" height="8.333"/>
<rect y="41.667" fill="#EDEDED" stroke="#C8C8C8" stroke-miterlimit="10" width="8.333" height="8.333"/>
<rect x="8.333" y="41.667" fill="#EDEDED" stroke="#C8C8C8" stroke-miterlimit="10" width="8.333" height="8.333"/>
<rect x="16.667" y="41.667" fill="#1A1A1A" width="8.333" height="8.333"/>
<rect x="25" y="41.667" fill="#1A1A1A" width="8.333" height="8.333"/>
<rect x="33.333" y="41.667" fill="#1A1A1A" width="8.333" height="8.333"/>
<rect x="41.667" y="41.667" fill="#EDEDED" stroke="#C8C8C8" stroke-miterlimit="10" width="8.333" height="8.333"/>
<rect x="50" y="41.667" fill="#1A1A1A" width="8.333" height="8.333"/>
<rect x="58.333" y="41.667" fill="#1A1A1A" width="8.334" height="8.333"/>
<rect x="66.667" y="41.667" fill="#1A1A1A" width="8.333" height="8.333"/>
<rect x="75" y="41.667" fill="#1A1A1A" width="8.333" height="8.333"/>
<rect x="83.333" y="41.667" fill="#EDEDED" stroke="#C8C8C8" stroke-miterlimit="10" width="8.334" height="8.333"/>
<rect x="91.667" y="41.667" fill="#EDEDED" stroke="#C8C8C8" stroke-miterlimit="10" width="8.333" height="8.333"/>
<rect y="50" fill="#EDEDED" stroke="#C8C8C8" stroke-miterlimit="10" width="8.333" height="8.333"/>
<rect x="8.333" y="50" fill="#EDEDED" stroke="#C8C8C8" stroke-miterlimit="10" width="8.333" height="8.333"/>
<rect x="16.667" y="50" fill="#1A1A1A" width="8.333" height="8.333"/>
<rect x="25" y="50" fill="#1A1A1A" width="8.333" height="8.333"/>
<rect x="33.333" y="50" fill="#1A1A1A" width="8.333" height="8.333"/>
<rect x="41.667" y="50" fill="#EDEDED" stroke="#C8C8C8" stroke-miterlimit="10" width="8.333" height="8.333"/>
<rect x="50" y="50" fill="#1A1A1A" width="8.333" height="8.333"/>
<rect x="58.333" y="50" fill="#1A1A1A" width="8.334" height="8.333"/>
<rect x="66.667" y="50" fill="#1A1A1A" width="8.333" height="8.333"/>
<rect x="75" y="50" fill="#1A1A1A" width="8.333" height="8.333"/>
<rect x="83.333" y="50" fill="#EDEDED" stroke="#C8C8C8" stroke-miterlimit="10" width="8.334" height="8.333"/>
<rect x="91.667" y="50" fill="#EDEDED" stroke="#C8C8C8" stroke-miterlimit="10" width="8.333" height="8.333"/>
<rect y="58.333" fill="#EDEDED" stroke="#C8C8C8" stroke-miterlimit="10" width="8.333" height="8.334"/>
<rect x="8.333" y="58.333" fill="#EDEDED" stroke="#C8C8C8" stroke-miterlimit="10" width="8.333" height="8.334"/>
<rect x="16.667" y="58.333" fill="#1A1A1A" width="8.333" height="8.334"/>
<rect x="25" y="58.333" fill="#1A1A1A" width="8.333" height="8.334"/>
<rect x="33.333" y="58.333" fill="#1A1A1A" width="8.333" height="8.334"/>
<rect x="41.667" y="58.333" fill="#EDEDED" stroke="#C8C8C8" stroke-miterlimit="10" width="8.333" height="8.334"/>
<rect x="50" y="58.333" fill="#EDEDED" stroke="#C8C8C8" stroke-miterlimit="10" width="8.333" height="8.334"/>
<rect x="58.333" y="58.333" fill="#EDEDED" stroke="#C8C8C8" stroke-miterlimit="10" width="8.334" height="8.334"/>
<rect x="66.667" y="58.333" fill="#1A1A1A" width="8.333" height="8.334"/>
<rect x="75" y="58.333" fill="#1A1A1A" width="8.333" height="8.334"/>
<rect x="83.333" y="58.333" fill="#EDEDED" stroke="#C8C8C8" stroke-miterlimit="10" width="8.334" height="8.334"/>
<rect x="91.667" y="58.333" fill="#EDEDED" stroke="#C8C8C8" stroke-miterlimit="10" width="8.333" height="8.334"/>
<rect y="66.667" fill="#EDEDED" stroke="#C8C8C8" stroke-miterlimit="10" width="8.333" height="8.333"/>
<rect x="8.333" y="66.667" fill="#EDEDED" stroke="#C8C8C8" stroke-miterlimit="10" width="8.333" height="8.333"/>
<rect x="16.667" y="66.667" fill="#1A1A1A" width="8.333" height="8.333"/>
<rect x="25" y="66.667" fill="#1A1A1A" width="8.333" height="8.333"/>
<rect x="33.333" y="66.667" fill="#1A1A1A" width="8.333" height="8.333"/>
<rect x="41.667" y="66.667" fill="#EDEDED" stroke="#C8C8C8" stroke-miterlimit="10" width="8.333" height="8.333"/>
<rect x="50" y="66.667" fill="#EDEDED" stroke="#C8C8C8" stroke-miterlimit="10" width="8.333" height="8.333"/>
<rect x="58.333" y="66.667" fill="#EDEDED" stroke="#C8C8C8" stroke-miterlimit="10" width="8.334" height="8.333"/>
<rect x="66.667" y="66.667" fill="#1A1A1A" width="8.333" height="8.333"/>
<rect x="75" y="66.667" fill="#1A1A1A" width="8.333" height="8.333"/>
<rect x="83.333" y="66.667" fill="#EDEDED" stroke="#C8C8C8" stroke-miterlimit="10" width="8.334" height="8.333"/>
<rect x="91.667" y="66.667" fill="#EDEDED" stroke="#C8C8C8" stroke-miterlimit="10" width="8.333" height="8.333"/>
<rect y="75" fill="#EDEDED" stroke="#C8C8C8" stroke-miterlimit="10" width="8.333" height="8.333"/>
<rect x="8.333" y="75" fill="#EDEDED" stroke="#C8C8C8" stroke-miterlimit="10" width="8.333" height="8.333"/>
<rect x="16.667" y="75" fill="#1A1A1A" width="8.333" height="8.333"/>
<rect x="25" y="75" fill="#1A1A1A" width="8.333" height="8.333"/>
<rect x="33.333" y="75" fill="#1A1A1A" width="8.333" height="8.333"/>
<rect x="41.667" y="75" fill="#1A1A1A" width="8.333" height="8.333"/>
<rect x="50" y="75" fill="#1A1A1A" width="8.333" height="8.333"/>
<rect x="58.333" y="75" fill="#1A1A1A" width="8.334" height="8.333"/>
<rect x="66.667" y="75" fill="#1A1A1A" width="8.333" height="8.333"/>
<rect x="75" y="75" fill="#1A1A1A" width="8.333" height="8.333"/>
<rect x="83.333" y="75" fill="#EDEDED" stroke="#C8C8C8" stroke-miterlimit="10" width="8.334" height="8.333"/>
<rect x="91.667" y="75" fill="#EDEDED" stroke="#C8C8C8" stroke-miterlimit="10" width="8.333" height="8.333"/>
<rect y="83.333" fill="#EDEDED" stroke="#C8C8C8" stroke-miterlimit="10" width="8.333" height="8.334"/>
<rect x="8.333" y="83.333" fill="#EDEDED" stroke="#C8C8C8" stroke-miterlimit="10" width="8.333" height="8.334"/>
<rect x="16.667" y="83.333" fill="#1A1A1A" width="8.333" height="8.334"/>
<rect x="25" y="83.333" fill="#1A1A1A" width="8.333" height="8.334"/>
<rect x="33.333" y="83.333" fill="#1A1A1A" width="8.333" height="8.334"/>
<rect x="41.667" y="83.333" fill="#1A1A1A" width="8.333" height="8.334"/>
<rect x="50" y="83.333" fill="#1A1A1A" width="8.333" height="8.334"/>
<rect x="58.333" y="83.333" fill="#1A1A1A" width="8.334" height="8.334"/>
<rect x="66.667" y="83.333" fill="#1A1A1A" width="8.333" height="8.334"/>
<rect x="75" y="83.333" fill="#1A1A1A" width="8.333" height="8.334"/>
<rect x="83.333" y="83.333" fill="#EDEDED" stroke="#C8C8C8" stroke-miterlimit="10" width="8.334" height="8.334"/>
<rect x="91.667" y="83.333" fill="#EDEDED" stroke="#C8C8C8" stroke-miterlimit="10" width="8.333" height="8.334"/>
<rect y="91.667" fill="#EDEDED" stroke="#C8C8C8" stroke-miterlimit="10" width="8.333" height="8.333"/>
<rect x="8.333" y="91.667" fill="#EDEDED" stroke="#C8C8C8" stroke-miterlimit="10" width="8.333" height="8.333"/>
<rect x="16.667" y="91.667" fill="#EDEDED" stroke="#C8C8C8" stroke-miterlimit="10" width="8.333" height="8.333"/>
<rect x="25" y="91.667" fill="#EDEDED" stroke="#C8C8C8" stroke-miterlimit="10" width="8.333" height="8.333"/>
<rect x="33.333" y="91.667" fill="#EDEDED" stroke="#C8C8C8" stroke-miterlimit="10" width="8.333" height="8.333"/>
<rect x="41.667" y="91.667" fill="#EDEDED" stroke="#C8C8C8" stroke-miterlimit="10" width="8.333" height="8.333"/>
<rect x="50" y="91.667" fill="#EDEDED" stroke="#C8C8C8" stroke-miterlimit="10" width="8.333" height="8.333"/>
<rect x="58.333" y="91.667" fill="#EDEDED" stroke="#C8C8C8" stroke-miterlimit="10" width="8.334" height="8.333"/>
<rect x="66.667" y="91.667" fill="#EDEDED" stroke="#C8C8C8" stroke-miterlimit="10" width="8.333" height="8.333"/>
<rect x="75" y="91.667" fill="#EDEDED" stroke="#C8C8C8" stroke-miterlimit="10" width="8.333" height="8.333"/>
<rect x="83.333" y="91.667" fill="#EDEDED" stroke="#C8C8C8" stroke-miterlimit="10" width="8.334" height="8.333"/>
<rect x="91.667" y="91.667" fill="#EDEDED" stroke="#C8C8C8" stroke-miterlimit="10" width="8.333" height="8.333"/>
</svg>
