<?xml version="1.0" encoding="utf-8"?>
<!-- Generator: Adobe Illustrator 16.0.0, SVG Export Plug-In . SVG Version: 6.00 Build 0)  -->
<!DOCTYPE svg PUBLIC "-//W3C//DTD SVG 1.1//EN" "http://www.w3.org/Graphics/SVG/1.1/DTD/svg11.dtd">
<svg version="1.1" id="Layer_1" xmlns="http://www.w3.org/2000/svg" xmlns:xlink="http://www.w3.org/1999/xlink" x="0px" y="0px"
	 width="65px" height="20px" viewBox="0 0 65 20" enable-background="new 0 0 65 20" xml:space="preserve">
<polyline fill="#F1C100" points="65,20 65,20 0,20 0,20 "/>
<line fill="#F1C100" x1="65" y1="20" x2="65" y2="20"/>
<polyline fill="#F1C100" points="0,19 0,11 1,11 1,13 2,13 2,11 3,11 3,13 4,13 4,11 5,11 5,13 6,13 6,11 7,11 7,15 8,15 8,11 9,11 
	9,13 10,13 10,11 11,11 11,13 12,13 12,11 13,11 13,13 14,13 14,11 15,11 15,13 16,13 16,11 17,11 17,15 18,15 18,11 19,11 19,13 
	20,13 20,11 21,11 21,13 22,13 22,11 23,11 23,13 24,13 24,11 25,11 25,13 26,13 26,11 27,11 27,15 28,15 28,11 29,11 29,13 30,13 
	30,11 31,11 31,13 32,13 32,11 33,11 33,13 34,13 34,11 35,11 35,13 36,13 36,11 37,11 37,15 38,15 38,11 39,11 39,13 40,13 40,11 
	41,11 41,13 42,13 42,11 43,11 43,13 44,13 44,11 45,11 45,13 46,13 46,11 47,11 47,15 48,15 48,11 49,11 49,13 50,13 50,11 51,11 
	51,13 52,13 52,11 53,11 53,13 54,13 54,11 55,11 55,13 56,13 56,11 57,11 57,15 58,15 58,11 59,11 59,13 60,13 60,11 61,11 61,13 
	62,13 62,11 63,11 63,13 64,13 64,11 65,11 65,19 "/>
<line fill="#F1C100" x1="0" y1="20" x2="0" y2="20"/>
<polyline fill="#BA9500" points="65,19 65,20 0,20 0,19 "/>
<polygon fill="#1A1A1A" points="12,0 12,2 7,2 7,8 10,8 10,6 8,6 8,4 12,4 12,10 4,10 4,0 "/>
<path fill="#1A1A1A" d="M13,4v6h6V9h-4V7h4V4H13z M15,6V5h2v1H15z"/>
<path fill="#1A1A1A" d="M20,4v6h5V4H20z M23,9h-1V5h1V9z"/>
<polygon fill="#1A1A1A" points="33,4 33,10 31,10 31,5 30,5 30,10 29,10 29,5 28,5 28,10 26,10 26,4 "/>
<path fill="#1A1A1A" d="M34,4v6h6V9h-4V7h4V4H34z M38,6h-2V5h2V6z"/>
<polygon fill="#1A1A1A" points="45,4 45,5 44,5 44,10 42,10 42,5 41,5 41,4 42,4 42,0 44,0 44,4 "/>
<polygon fill="#1A1A1A" points="50,4 50,5 48,5 48,10 46,10 46,4 "/>
<rect x="51" y="4" fill="#1A1A1A" width="2" height="6"/>
<rect x="1" y="11" fill="#1A1A1A" width="1" height="2"/>
<rect x="3" y="11" fill="#1A1A1A" width="1" height="2"/>
<rect x="5" y="11" fill="#1A1A1A" width="1" height="2"/>
<rect x="7" y="11" fill="#1A1A1A" width="1" height="4"/>
<rect x="9" y="11" fill="#1A1A1A" width="1" height="2"/>
<rect x="11" y="11" fill="#1A1A1A" width="1" height="2"/>
<rect x="13" y="11" fill="#1A1A1A" width="1" height="2"/>
<rect x="15" y="11" fill="#1A1A1A" width="1" height="2"/>
<rect x="17" y="11" fill="#1A1A1A" width="1" height="4"/>
<rect x="19" y="11" fill="#1A1A1A" width="1" height="2"/>
<rect x="21" y="11" fill="#1A1A1A" width="1" height="2"/>
<rect x="23" y="11" fill="#1A1A1A" width="1" height="2"/>
<rect x="25" y="11" fill="#1A1A1A" width="1" height="2"/>
<rect x="27" y="11" fill="#1A1A1A" width="1" height="4"/>
<rect x="29" y="11" fill="#1A1A1A" width="1" height="2"/>
<rect x="31" y="11" fill="#1A1A1A" width="1" height="2"/>
<rect x="33" y="11" fill="#1A1A1A" width="1" height="2"/>
<rect x="35" y="11" fill="#1A1A1A" width="1" height="2"/>
<rect x="37" y="11" fill="#1A1A1A" width="1" height="4"/>
<rect x="39" y="11" fill="#1A1A1A" width="1" height="2"/>
<rect x="41" y="11" fill="#1A1A1A" width="1" height="2"/>
<rect x="43" y="11" fill="#1A1A1A" width="1" height="2"/>
<rect x="45" y="11" fill="#1A1A1A" width="1" height="2"/>
<rect x="47" y="11" fill="#1A1A1A" width="1" height="4"/>
<rect x="49" y="11" fill="#1A1A1A" width="1" height="2"/>
<rect x="51" y="11" fill="#1A1A1A" width="1" height="2"/>
<rect x="53" y="11" fill="#1A1A1A" width="1" height="2"/>
<rect x="55" y="11" fill="#1A1A1A" width="1" height="2"/>
<rect x="57" y="11" fill="#1A1A1A" width="1" height="4"/>
<rect x="59" y="11" fill="#1A1A1A" width="1" height="2"/>
<rect x="61" y="11" fill="#1A1A1A" width="1" height="2"/>
<rect x="63" y="11" fill="#1A1A1A" width="1" height="2"/>
<polygon fill="#1A1A1A" points="62,2 62,4 60,6 62,8 62,10 60,10 58,8 56,10 54,10 54,8 56,6 54,4 54,2 56,2 58,4 60,2 "/>
</svg>
